<svg id="svg5542" height="147.46mm" width="175.32mm" version="1.1" xmlns:cc="http://creativecommons.org/ns#" xmlns:dc="http://purl.org/dc/elements/1.1/" viewBox="0 0 621.21279 522.49122">
	<g id="layer1" stroke-linejoin="round" transform="translate(-57.837 -269.84)" stroke="#646464" fill="none">
		<path id="path7673" d="m451.21 553.19 0.7536 0.7536 1.0048 1.0048 0.5024 0.5024 0.5024 0.7536 0.5024 0.5024 1.5072 1.256 0.2512 0.5024 3.0144 2.7632 1.0048 1.0048 0.7536 0.7536 1.256 1.256 0.7536 0.7536 0.5024 0.7536 1.5072 1.5072 1.5072 1.256 0.2512 0.2512 0.7536 0.7536 0.5024 0.2512 2.2608 0.7536 0.5024 0.2512 2.0096 0.7536 1.0048 0.5024v0.5024l-0.5024 1.5072-0.2512 1.0048 0.2512 0.2512h0.2512l3.5168 1.5072 1.256 0.2512 1.0048 0.5024 1.7584 0.7536h0.2512l1.5072-3.768 0.2512-2.0096 0.2512-1.256 1.5072-2.7632h0.2512l1.256 0.2512 2.2608 0.2512 1.5072 0.2512 0.7536 0.2512 1.0048 1.0048 0.7536 1.0048 0.7536 0.7536 1.7584 2.2608 0.7536 0.5024 0.7536 0.2512 0.7536 0.5024 1.5072-0.2512h0.2512 0.5024l0.7536 0.2512 0.7536 0.2512h0.7536l0.7536 0.2512 0.7536 0.2512h1.0048l1.5072 0.5024h0.2512l1.5072 0.2512h0.5024l1.256 0.5024 2.512 0.2512-2.2608 2.0096-1.256 1.0048-2.7632 2.2608-1.7584 1.7584-1.0048 1.0048-0.7536 0.5024-2.0096 2.2608-2.512 2.7632-3.2656-0.7536h-0.5024-0.5024-0.5024-1.0048l-0.5024-0.2512h-0.7536l-0.5024-0.2512-1.256-0.5024-0.7536-0.2512-0.7536 4.0192-0.2512 0.5024v0.2512l-0.2512 0.2512v0.5024l-0.2512 0.5024v0.7536l-0.2512 1.0048v0.5024 0.5024 0.5024 0.7536l-0.2512 1.256h0.5024 0.2512 0.7536 0.5024 0.5024l0.5024 0.2512v1.0048l-0.2512 0.5024v1.256 1.0048 0.7536 0.2512l-0.2512 0.7536v0.5024 0.7536l-0.2512 0.2512v0.5024 0.5024l-0.2512 0.7536-0.5024 1.256-0.2512 1.0048v1.0048 0.7536l-0.2512 1.0048v0.5024l0.2512 0.5024v0.7536h0.5024l0.7536 0.2512 0.7536 0.2512 1.0048 0.2512 1.5072 0.7536 1.0048 0.5024 0.7536 0.2512 0.2512-1.256 0.2512-0.2512v-0.5024l0.2512-0.5024v-0.2512l-0.2512-0.7536v-0.5024l-0.2512-0.7536 0.2512-0.5024v-0.2512-0.5024-0.7536l0.2512-0.5024v-0.7536l0.2512-0.7536 0.2512-0.7536 1.0048 0.2512 1.256 0.2512 0.2512 0.2512 0.7536 0.2512v0.5024 0.5024 0.5024l-0.2512 1.0048-0.2512 0.7536-0.2512 0.5024-0.2512 0.7536v0.2512l-0.2512 0.5024v0.2512 0.2512 0.5024 0.7536 0.7536 0.5024 0.5024l-0.2512 0.7536v0.7536l-0.2512 1.256v0.5024l-0.2512 0.5024v0.2512 0.5024l-0.2512 0.5024-0.2512 0.2512-0.2512 1.0048v0.2512l-0.2512 0.7536-0.2512 1.0048-0.2512 0.5024-0.2512 1.5072-0.2512 0.5024v0.2512l-0.2512 0.7536-0.2512 1.0048h-0.5024l-0.7536 0.2512h-0.2512l-0.5024 0.2512h-0.2512l-0.5024 0.2512h-0.5024-0.2512-0.2512-0.7536l0.2512 0.7536 1.256 2.2608 0.5024 1.5072 0.5024 1.256 0.7536 3.0144-3.2656 0.2512h-4.7728l0.7536-4.2704 1.0048-5.024-7.0336-3.0144-10.299-3.5168-14.57-4.2704 0.2512 1.5072v0.5024l0.2512 0.5024 0.5024 1.0048v0.5024l0.2512 0.2512 0.2512 0.2512v0.5024l0.5024 1.5072v0.5024l0.2512 0.2512v0.7536 0.5024 0.5024 0.2512l0.2512 0.7536 0.2512 1.0048 0.2512 0.2512 0.2512 0.5024 0.2512 0.7536v0.7536l-0.2512 0.2512v1.0048l-0.2512 0.7536v0.5024l0.2512 0.7536v0.5024l-0.2512 0.5024v0.5024l-0.2512 0.7536v1.5072 1.0048l0.5024 2.2608 1.7584 7.0336-2.0096-0.2512h-1.7584l-4.2704-0.7536-0.2512-0.2512h-0.7536-1.256-0.5024-1.7584l-0.2512 2.0096v0.5024 1.5072l-0.2512 0.5024 0.2512 0.2512 0.2512 0.7536-12.56-1.0048-2.7632-0.7536-0.7536 2.512-1.256 0.2512-4.5216 0.5024-11.806-1.0048-0.2512 3.0144-0.2512 2.512v1.256l-0.5024-0.2512-0.2512 3.2656-1.0048 3.0144-2.0096 5.2752-8.5408-1.256 1.0048-1.256 1.5072-4.7728 0.2512-1.0048 2.512-22.608-4.2704-1.0048-4.2704-1.0048h-5.5264l-3.768 0.2512h-5.7776l-2.0096-0.5024-0.2512 2.512-0.2512 0.5024-1.0048 2.7632-1.0048 1.5072-0.5024 1.256-0.7536-0.2512-5.7776-0.7536h-0.7536l-0.2512 2.7632-0.2512 1.256 0.2512 1.0048v1.256l-0.2512 1.0048 6.28 3.0144 16.077 6.5312 5.2752 2.0096v0.5024l1.256 4.7728 0.2512 1.5072-0.5024 2.0096-0.2512 1.0048-0.5024 1.5072-0.5024 1.0048v1.256l-0.2512 1.256-0.2512 2.7632v2.2608l-2.0096-0.5024-5.024 0.2512-1.256 0.5024v-2.2608l-0.2512-0.5024-0.2512-0.2512-0.5024-1.5072 0.5024-7.7872-1.5072-0.2512-0.2512-0.5024-1.0048-1.0048-1.7584-1.256-4.2704-1.7584-1.256-0.5024-7.2848-3.2656-1.5072-0.2512h-1.0048l-0.7536-1.0048-3.2656-1.0048-5.5264-2.512-3.2656-0.2512-1.256-1.5072-1.5072-0.5024-1.7584-0.5024-1.0048-0.5024-0.7536-0.5024-1.256-0.2512-12.811-1.256 2.2608-25.12 1.0048-7.536 1.256-0.7536 1.5072-0.5024h1.5072l0.7536-0.5024 0.5024 1.5072 4.0192 3.5168h1.0048l2.0096 0.2512 2.0096-0.2512 2.0096-0.2512 3.0144 0.2512 2.2608 0.2512 2.2608-0.2512 0.7536-2.2608 1.256-2.0096-0.5024-1.256-0.2512-0.2512-2.7632 0.2512-1.7584-1.0048-1.0048-0.2512 1.0048-3.768v-5.5264-0.2512-1.5072l-2.512-1.5072-1.5072-0.2512-0.2512-1.0048-0.5024-1.0048-0.2512-0.7536-1.0048-1.256-0.5024-1.7584-1.0048-4.0192-3.2656-5.5264 0.2512-1.5072v-1.5072l-0.2512-0.2512-0.2512-0.7536-1.5072-3.0144-5.7776-10.55h-1.0048l-4.5216-0.7536-3.0144-0.2512h-1.0048v-2.7632l-0.7536-0.2512-1.7584-0.7536h-0.7536l0.2512-3.2656h1.0048 0.7536l0.5024-1.5072v-0.2512-0.2512-1.0048-2.512-0.2512-0.7536l4.5216-7.7872 10.55 1.5072 4.5216-1.0048 3.5168-0.7536 3.2656 0.5024h2.7632l3.5168 0.5024 1.256 0.5024h0.5024l7.2848 5.5264 4.0192 3.5168h0.2512l3.0144 2.2608 0.7536 0.5024v-0.5024l0.2512-0.2512 1.256-3.5168 2.0096 0.2512 2.512 1.5072-0.5024 1.256-0.5024 1.0048-0.2512 0.7536-0.5024 1.5072 1.256 0.2512 1.256 0.2512h1.7584 1.7584l0.2512-0.7536v-1.256l0.2512-2.0096v-1.256l1.0048 0.2512h0.7536 0.5024 0.2512 0.2512 0.5024 0.5024 1.0048 1.7584 0.5024l2.7632 0.2512v8.5408 1.5072l-0.2512 0.2512v0.2512 0.5024l-0.2512 1.256 8.5408 1.7584 0.2512-1.0048v-0.5024-0.2512l0.2512-0.7536 0.2512-5.024v-0.5024l0.7536-3.768 0.2512-1.7584h5.5264l3.768 2.512-0.7536 4.7728 1.0048 7.0336 0.2512 0.2512v0.2512 0.5024l2.0096 4.7728-7.0336-0.7536-1.0048 5.7776v3.0144l0.5024 3.2656 0.2512 0.2512v0.2512l0.2512 1.7584 2.512 6.7824h4.5216l5.5264 0.2512 9.2944 2.2608v-1.0048-0.5024l0.2512-0.7536v-0.7536l0.5024-1.256 1.0048-5.5264v-0.2512l0.5024-4.0192 0.2512-0.7536 0.2512-1.0048v-0.7536-0.5024l0.2512-0.5024 0.2512-1.0048-7.7872-3.0144 0.5024-3.0144v-0.5024l0.2512-0.2512v-0.2512l0.2512-1.256 0.5024-2.512 0.5024-4.0192 0.2512-0.5024v-0.2512l0.5024-0.7536 0.7536-1.5072 1.0048-2.2608 0.5024-1.0048-1.7584 0.2512h-0.2512-0.7536l0.2512-0.5024 0.2512-0.7536 0.2512-1.0048 0.2512-0.5024 0.2512-0.2512 0.5024-1.256v-0.2512l0.2512-0.7536 0.2512-0.7536 0.5024-2.512 0.5024-2.7632-2.0096-2.512 2.0096-0.5024 2.7632-1.256 0.7536-0.5024 0.7536 0.2512v-0.5024l0.2512-0.7536 0.2512-1.7584 0.2512-0.7536 0.2512-0.7536 0.2512-1.0048v-1.256l0.2512-0.5024 0.2512 0.5024 1.256 1.0048 1.0048 1.0048 0.5024 0.7536 1.0048 0.7536 0.5024 0.5024 3.0144 3.0144 0.5024 0.5024"/>
		<path id="path7688" d="m462.52 392.67 1.0048 0.5024 1.5072 1.0048 2.7632 0.7536 2.0096-0.2512 2.512 0.5024 1.0048 0.5024h1.0048l1.256 0.5024h1.256l4.0192 1.256 1.7584 0.2512 1.0048 0.5024 0.7536 0.5024 0.5024-0.5024 1.256-2.0096 1.5072 0.2512 1.0048 0.5024 0.2512-1.256 4.2704 0.5024 6.5312 0.7536-1.7584 5.7776-1.256 6.5312 3.5168 1.0048 3.5168 1.0048-0.5024 1.7584-0.7536 2.512-2.2608 2.0096-0.5024 0.7536-0.2512 0.7536-0.2512 2.0096 2.0096 0.2512 2.0096-0.5024 1.5072 0.2512h0.5024l3.5168-1.256 1.0048-0.5024 0.7536-0.2512 0.5024-0.5024 0.7536-0.5024 1.256-1.0048 2.512 0.5024 0.7536 0.2512 1.256 0.2512h2.2608l0.7536 0.2512v0.5024h0.5024l0.7536 0.5024 2.2608 0.5024 0.7536-0.2512 1.0048 0.5024h0.7536l1.5072 0.2512 2.0096 0.5024 1.0048 0.5024 3.5168 1.7584 1.0048 0.5024 0.7536 3.0144 0.7536 0.7536 1.256 0.2512h0.5024l0.7536 0.2512 6.28-0.2512 1.7584 1.256 3.768 1.5072 2.0096 1.5072h1.0048l1.256 0.5024-1.256 0.2512-0.5024 1.0048v1.0048l-1.0048 0.7536-2.2608 2.0096-1.256 0.7536-1.0048 0.5024-1.0048 0.2512-1.0048 0.2512h-0.7536l-1.7584 2.2608-1.7584 4.2704-0.2512 0.5024h-0.2512l-0.7536-0.5024-1.7584-0.2512-1.7584-1.0048-1.5072-0.2512-1.256-0.7536-1.7584-0.7536-3.0144-1.7584-1.0048-0.5024-4.2704-0.5024 0.5024 3.5168v0.7536l-0.2512 2.2608-0.5024 1.5072-0.2512 0.7536-0.2512 0.7536v0.7536 0.7536 1.0048l-0.5024 0.7536-0.2512 0.7536-0.7536 2.2608-0.2512 1.5072v2.2608l-0.2512 3.5168-0.2512 1.0048-4.5216 13.816 0.2512 2.0096 1.7584 0.7536 1.0048 0.2512 1.5072 0.7536 3.2656 0.7536 3.0144 1.0048 3.2656 1.256 3.768 1.0048 2.2608 0.2512 1.256 4.0192v1.0048l0.5024 3.5168 0.7536 1.7584 0.5024 2.2608 0.7536 4.2704 0.5024 1.0048 1.256 2.2608 1.256 2.512-3.5168 6.28-0.2512 1.0048v2.7632l-0.5024 2.0096-2.0096 6.28-0.2512 0.2512-1.5072 1.256-0.2512 0.2512-0.5024 0.2512h-0.2512l-1.256 1.0048h-0.2512l-0.7536 0.5024-0.2512 0.2512-0.5024 0.2512-1.256 1.0048-0.5024 0.2512-1.0048 0.7536-0.2512 0.2512-0.5024 0.2512-1.0048 0.7536-0.7536 0.5024-6.28 1.256-3.2656 0.7536v-5.5264l0.2512-9.7968-0.7536-0.2512-3.0144-0.2512h-1.256l-3.5168 0.7536-1.256 0.5024v1.7584l0.2512 3.768-0.2512 2.0096-0.5024 1.0048-3.2656 3.0144-1.5072 3.2656-3.0144 2.512-2.0096 1.7584-1.7584 1.0048-1.7584 1.7584-1.5072 1.5072-1.256 1.0048-1.5072 1.256-1.256 2.7632-0.5024 3.5168-2.512-1.256-3.5168-1.0048-1.256-0.2512-3.0144-0.2512 0.7536-1.256 0.5024-2.512 0.5024-2.2608v-1.7584l0.7536-3.0144 0.5024-1.256-0.7536-1.0048-0.7536-2.7632-0.5024-1.256-0.2512-1.5072-0.5024-3.0144 1.256 0.2512 1.5072 0.5024 1.256-4.2704 0.2512-0.5024 0.7536-0.5024 2.0096-3.0144 1.5072-1.7584 2.7632-2.512-0.2512-0.2512-3.2656-2.7632-2.2608-1.7584-0.7536-0.2512-0.7536-0.5024-0.7536-0.5024-1.5072-0.7536-0.5024-0.2512-1.0048-0.2512-1.0048-0.2512-1.0048-0.5024-0.5024-0.2512-0.7536-0.5024-0.7536-0.5024-0.5024-0.7536-0.2512-0.2512-0.5024-0.2512-0.7536-0.5024-0.2512-0.2512-0.5024-0.2512-0.5024-0.2512-0.7536 0.2512h-0.7536l-0.2512-0.7536-0.5024-0.5024-0.2512-0.5024-0.5024-0.2512v-0.5024l-0.5024-0.7536-0.2512-0.5024-0.2512-0.5024-0.5024-0.2512-0.7536-0.2512v-0.5024-0.7536l0.2512-0.7536-0.2512-0.7536-2.0096 0.2512-2.7632-0.2512h-1.0048l-0.7536-0.2512h-1.0048l-1.256-0.2512h-1.256-1.5072v-1.7584l0.2512-1.0048-0.2512-2.2608v-0.7536-2.512l-0.7536-0.5024-2.7632-2.2608-0.5024-0.2512-0.5024-0.2512-2.2608-0.7536-0.5024-0.2512-1.0048 0.2512v0.5024 0.7536 1.0048l-0.7536 2.0096-2.7632-1.0048-0.7536-0.5024-3.768-1.5072-1.0048-0.2512-4.0192-0.2512-2.0096 12.058-1.5072-0.2512-0.7536-0.7536-1.0048-1.256-0.7536-0.7536-0.7536-1.0048-0.5024-1.0048-0.7536-0.5024-0.5024-0.5024-0.7536-0.2512v-1.5072l-11.555 3.0144-1.7584 1.5072v1.7584h-2.2608-3.768-2.0096-0.7536l0.2512 1.5072h-0.7536l-0.5024 0.5024h-0.2512l-2.512 1.7584h-0.2512l-1.5072 0.2512-0.7536 0.2512-1.5072-0.2512 0.7536-5.2752 0.5024-1.256h1.5072l5.2752 0.5024-2.2608-6.7824-2.0096 0.7536-3.0144-0.2512h-0.2512l-3.0144-0.2512-2.512-0.2512h-0.5024l-1.0048-0.2512-0.2512 0.5024v0.5024h0.5024l-0.2512 1.5072h0.2512v2.2608l-0.2512 0.2512v0.7536l-0.2512 0.5024-5.024-0.5024-0.2512 0.7536 0.5024 1.5072v0.5024 0.2512l-2.2608 1.5072-3.2656 2.7632-4.7728-1.5072-2.512-1.0048-7.0336-2.512-3.2656-1.0048-1.5072 3.5168-0.5024 1.5072-0.2512 0.2512-0.5024 0.5024-0.7536 1.256-0.7536 2.512v0.7536l-0.2512 1.5072 0.5024 2.512 0.5024 4.7728v2.0096l2.2608 0.2512h8.792 2.2608l1.256-0.2512 1.0048-1.5072h0.5024l2.512 1.5072 5.5264 3.768 1.0048 5.024 3.0144-2.2608 1.256-0.2512 1.7584-0.2512h3.0144l1.7584 1.7584 0.5024 2.0096 0.5024 0.2512 0.5024 1.0048 0.7536 0.7536 1.256-0.2512h2.512l2.7632-0.5024 1.0048-0.2512 2.512 0.2512 3.2656 0.2512h2.2608l-0.2512 2.512-1.256 2.512-1.256 2.7632-1.5072 3.5168v0.5024l-0.7536-0.2512-2.2608-3.0144h-0.5024-1.0048v3.0144l2.512 0.2512-0.2512 6.28-0.5024 3.0144-0.2512 3.2656 6.0288 0.5024 0.2512-3.2656 3.0144 0.7536-6.0288-9.2944 7.7872 0.7536 3.5168 5.024 6.5312 0.7536 9.7968 1.5072 2.0096 4.5216 1.0048 1.256 2.0096 2.512-0.5024 2.7632-0.5024 2.512-0.2512 0.7536-0.2512 0.7536v0.2512l-0.5024 1.256-0.2512 0.2512-0.2512 0.5024-0.2512 1.0048-0.2512 0.7536-0.2512 0.5024h0.7536 0.2512l1.7584-0.2512-0.5024 1.0048-1.0048 2.2608-0.7536 1.5072-0.5024 0.7536v0.2512l-0.2512 0.5024-0.5024 4.0192-0.5024 2.512-0.2512 1.256v0.2512l-0.2512 0.2512v0.5024l-0.5024 3.0144 7.7872 3.0144-0.2512 1.0048-0.2512 0.5024v0.5024 0.7536l-0.2512 1.0048-0.2512 0.7536-0.5024 4.0192v0.2512l-1.0048 5.5264-0.5024 1.256v0.7536l-0.2512 0.7536v0.5024 1.0048l-9.2944-2.2608-5.5264-0.2512h-4.5216l-2.512-6.7824-0.2512-1.7584v-0.2512l-0.2512-0.2512-0.5024-3.2656v-3.0144l1.0048-5.7776 7.0336 0.7536-2.0096-4.7728v-0.5024-0.2512l-0.2512-0.2512-1.0048-7.0336 0.7536-4.7728-3.768-2.512h-5.5264l-0.2512 1.7584-0.7536 3.768v0.5024l-0.2512 5.024-0.2512 0.7536v0.2512 0.5024l-0.2512 1.0048-8.5408-1.7584 0.2512-1.256v-0.5024-0.2512l0.2512-0.2512v-1.5072-8.5408l-2.7632-0.2512h-0.5024-1.7584-1.0048-0.5024-0.5024-0.2512-0.2512-0.5024-0.7536l-1.0048-0.2512v1.256l-0.2512 2.0096v1.256l-0.2512 0.7536h-1.7584-1.7584l-1.256-0.2512-1.256-0.2512 0.5024-1.5072 0.2512-0.7536 0.5024-1.0048 0.5024-1.256-2.512-1.5072-2.0096-0.2512-1.256 3.5168-0.2512 0.2512v0.5024l-0.7536-0.5024-3.0144-2.2608h-0.2512l-4.0192-3.5168-7.2848-5.5264h-0.5024l-1.256-0.5024-3.5168-0.5024h-2.7632l-3.2656-0.5024-2.0096-14.067h1.256l0.7536-0.5024h0.5024l1.0048-0.7536 1.256-0.2512 2.7632-0.2512h1.256l-0.2512-1.7584v-0.5024l-0.5024-1.7584-0.5024-3.2656-0.2512-1.5072-0.2512-1.5072h-0.5024v-1.0048l-0.2512-1.7584-0.2512-1.256-0.2512-1.5072h-1.256l-7.536-0.7536-1.7584-0.2512 0.2512-2.2608-5.024-2.0096 0.2512-0.2512 3.0144-6.7824-0.7536-0.5024-1.256-0.2512-1.5072-1.0048-0.5024-0.5024-0.5024-0.5024-1.0048-0.2512-0.7536-0.2512h-0.5024l-0.5024-0.2512-1.0048-0.7536-1.256-0.7536-0.7536-0.2512h-0.5024l-1.7584-0.2512-0.5024 1.256-1.256-0.5024-1.5072-0.2512-4.0192-2.2608h-0.7536l-1.0048-0.2512-1.256-0.2512-1.256-0.5024-0.7536-0.2512-0.5024-0.2512-1.5072-0.2512h-1.5072l-2.512-0.7536-1.7584-0.2512-3.0144-2.0096-1.7584-1.0048-0.5024-0.7536-0.7536-0.2512-0.5024-0.5024-1.0048-0.2512v-0.2512l-0.2512-2.7632h-2.0096l-1.0048-0.2512-0.2512 0.2512-0.5024-0.2512h-0.2512l-0.5024-0.2512-0.2512-0.2512h-1.0048-0.7536-1.0048l-1.0048-0.5024 0.2512 0.7536-0.2512 0.5024-0.2512 0.7536 0.5024 1.256-0.2512 1.0048-0.7536 1.5072v0.7536l-0.5024 2.2608-0.5024-0.2512-0.7536-0.2512h-0.7536l-0.2512-1.7584-1.7584-0.7536h-0.2512l-1.0048 0.5024-0.2512-0.2512h-1.7584l-0.2512-0.2512-1.256 3.2656-0.5024 2.0096-0.2512 1.256h-4.0192l-2.0096 0.5024-1.5072-1.0048-1.256-1.0048-1.256-2.0096 0.2512-0.5024v-1.0048l0.2512-0.7536 0.2512-0.2512 0.5024-0.5024 0.2512-0.2512-0.2512-1.5072h-0.2512l-0.5024-0.2512-1.7584-0.5024 0.2512-1.0048 0.2512-1.0048 0.2512-0.7536 0.2512-0.5024 0.2512-0.7536-1.7584-0.2512-0.2512-0.2512-1.5072-0.7536h-0.5024l-0.7536-0.2512h-1.0048l-0.7536-0.5024-2.512-0.5024-2.2608-0.5024-0.5024-0.7536-1.0048-0.5024-0.2512-0.2512-0.2512-0.2512h-0.2512l-0.2512-0.5024-2.0096-0.2512h-1.5072-2.2608l-1.256-0.5024-3.768 3.768-0.2512 0.5024h-0.2512l-4.0192 4.0192-0.5024-0.2512-1.5072-7.2848-1.7584-6.28v-0.7536l5.5264-5.2752 1.7584-13.816-2.0096-1.0048-1.5072-0.7536-1.256-0.7536-3.2656-1.256h-0.5024l-0.5024 0.2512-0.5024-1.256h-0.2512v-0.2512l-0.2512-0.7536-1.0048-2.7632-1.0048-1.7584v-1.256l-0.5024-1.7584 0.5024 1.0048 0.5024 0.7536 0.2512 0.7536 0.5024 1.256 1.256 1.5072h0.7536l1.5072 1.0048 1.0048 0.2512 2.512 1.5072 1.256-2.2608 12.309 5.024 1.0048-4.0192 1.256-5.2752 0.2512-1.5072 1.5072-6.5312 5.2752 1.7584-0.7536 2.7632 3.2656 0.2512 2.2608 0.2512 0.7536-2.512 0.5024-2.0096 1.0048-4.0192-0.7536-0.2512v-0.2512l0.2512-1.0048 0.2512-0.2512-0.2512-2.7632h1.256l0.2512-1.7584 0.2512-2.512 1.7584 0.5024h0.5024l1.256 0.2512h0.2512l1.256 0.2512h0.2512l0.2512-1.7584v-1.256l0.2512-1.5072v-0.7536l3.0144 0.5024 1.7584 0.2512h0.5024l0.2512-1.0048v-0.5024-0.2512-1.0048-0.2512l0.2512-1.7584 0.2512-1.5072v-0.2512l1.7584 0.2512 1.256 0.2512h0.7536 0.7536l1.5072 0.2512v4.7728l4.7728 0.5024 1.256 0.2512h1.0048 0.5024l0.7536 0.2512h1.5072 0.2512l0.5024-2.512 0.2512-1.256 0.5024-3.2656 0.2512-1.0048 0.5024-2.7632 2.7632 0.2512h0.5024l2.512 0.2512h1.0048l-0.2512 2.2608-0.5024 2.2608-0.2512 2.512-0.7536 4.2704 2.512 0.2512-0.5024 4.2704-0.2512 2.2608v0.5024h1.256l5.5264 0.7536-0.2512 2.7632 1.5072 0.2512v-0.5024l1.0048 0.2512 0.2512-1.5072 0.7536-3.768 0.2512-3.0144v-1.0048l0.7536-4.0192 3.768 0.7536h1.256l2.512 0.5024 2.0096 0.2512 6.7824 0.7536-0.5024-2.512h-1.256l0.2512-3.0144h3.0144l-0.2512 3.0144 0.2512 0.2512h0.7536 0.5024 0.2512 1.256v0.2512h0.7536 1.256 0.7536 0.5024l-2.0096-1.7584v-0.5024l0.2512-0.5024v-0.7536l-0.2512-1.7584v-0.7536l2.7632-0.5024h1.0048 1.0048 1.5072 1.256 1.0048l1.0048-0.2512v1.256h0.5024 0.7536v0.2512l0.2512-0.2512v1.0048 0.7536 0.5024l1.0048 0.7536 0.2512 0.2512 0.7536 0.7536 0.7536 0.5024 0.2512 0.2512 1.256 1.7584v0.2512l1.5072 0.2512h1.5072l0.2512 0.2512 2.512 0.2512h0.2512 0.2512l1.256 0.2512h0.2512l2.2608 0.2512 2.2608 0.2512 0.5024 0.2512 0.2512-0.7536v-1.0048l0.2512-0.5024-0.2512-1.0048v-0.7536l-0.2512-0.7536-0.2512-0.7536-0.2512-0.7536-0.5024-0.7536-0.2512-0.5024-0.5024-0.5024-0.2512-0.5024-0.2512-0.5024-0.2512-1.0048v-0.5024-0.7536-0.2512-1.256-0.7536l-0.2512-0.7536v-0.5024-0.7536l1.256-0.2512 1.0048-0.2512-0.2512-0.7536 0.2512-0.2512v-0.2512l-0.2512-1.0048-0.2512-1.0048v-1.0048l-0.2512-1.5072-0.2512-1.0048h0.2512l6.7824 1.7584 1.5072-0.5024 1.0048-0.2512 1.256 0.5024 3.2656 0.7536v0.2512l2.7632 1.0048 1.7584 0.5024 2.0096 0.7536 1.0048 0.2512 0.7536 0.5024h0.5024l3.768 1.7584 1.0048 0.5024 5.2752 1.7584 2.7632 0.2512 3.5168 0.2512 0.7536-2.2608h0.7536l1.256-0.7536h0.5024l0.2512-0.2512 2.7632-0.5024 0.2512-0.2512 1.7584-0.5024 5.5264-1.7584 1.0048-0.2512 2.512-0.7536 0.5024 1.5072 3.0144-1.0048-0.5024-1.5072 4.0192-1.256 1.7584 0.2512 1.0048 1.5072 1.5072-0.2512 2.512-1.256 1.7584-0.5024 1.256-0.2512 0.7536-0.2512h0.2512l0.7536 0.2512 1.0048-1.7584v-0.5024l0.5024-0.2512h1.5072l0.2512 0.2512 0.5024 0.2512 0.5024 0.7536h0.5024l1.0048 0.5024h1.0048l1.0048 0.5024 1.5072-0.2512 0.5024-1.256 0.2512-1.5072v-2.512l0.2512-0.5024-1.0048-2.512 0.5024 0.2512h0.7536 1.5072 0.7536l1.5072 0.2512 0.5024-0.2512"/>
		<path id="path7700" d="m293.96 601.17 2.2608 0.5024h0.7536l2.0096-0.5024h0.5024l1.5072 1.7584v-0.7536l0.2512-0.5024 0.5024-1.0048 0.2512-0.2512h0.2512v0.2512l1.5072 0.2512 0.2512 0.5024 0.2512 0.5024 0.5024-0.2512 1.0048 0.2512 1.7584 0.2512h0.7536 0.5024l1.0048 0.2512-0.2512 1.7584-0.2512 1.0048v0.2512l10.299 1.0048v0.5024 0.5024l6.28 0.7536 3.2656 1.256 0.7536 1.256 2.7632 0.2512-0.5024 7.0336 2.7632 5.7776 0.5024 0.5024 0.5024 0.5024 0.2512 0.2512h1.256l-1.0048 7.536-2.2608 25.12 12.811 1.256-2.512 5.7776-0.7536 2.7632-1.5072 6.0288-0.7536 3.0144-6.0288 1.5072 3.2656 7.0336 5.7776 3.2656 0.5024 0.2512 3.2656 1.256v0.7536l-1.256 6.0288-0.5024 1.0048-0.7536 1.256-0.2512 1.256-1.5072 0.7536-0.5024 0.5024-2.512 3.2656h-0.5024-0.2512l-0.7536 0.2512-1.7584 3.5168-0.2512 0.5024-0.2512 0.2512-0.5024 1.256-1.0048 1.7584-0.5024 0.5024-2.512 3.5168-0.2512 0.2512-1.0048 1.0048-0.2512 0.5024-1.256-0.5024h-0.5024l-1.7584 0.2512-2.512-0.5024-1.5072-0.2512-0.7536 1.256-0.2512 1.5072 0.2512 1.5072-0.2512 0.5024-0.2512 2.2608-0.2512 2.0096v0.2512l-0.7536 3.0144-7.2848 8.5408-11.053-1.256-1.0048-0.2512h-0.2512l-4.7728-0.5024-0.2512 2.7632v0.2512l-0.5024 3.768h-1.7584l-1.256 1.0048-0.5024 0.2512-4.2704 3.2656-0.5024 0.5024-1.0048 1.5072-0.7536 0.5024-1.256 1.0048-0.7536 1.7584-1.256-1.5072-2.7632-1.0048-1.0048-0.5024-0.2512-0.7536-0.2512-0.5024-3.768-1.256-0.2512-6.28-0.7536-0.2512-1.5072-1.7584-2.0096-4.5216-2.0096-1.256-1.5072-2.0096 0.2512-1.0048-2.0096-1.7584v-0.7536l1.256-2.0096 0.2512-0.2512 0.7536-1.7584 0.2512-1.7584v-0.5024l0.2512-9.7968 0.2512-0.7536-2.2608-0.5024-3.0144-0.5024-6.0288-1.7584-5.7776 7.536-3.5168-1.256h-1.5072l0.7536-2.2608 0.5024-0.5024 0.7536-2.512 4.7728 1.256 2.0096-4.0192 1.0048-4.5216v-1.5072l0.2512-2.7632-0.2512-0.7536 2.0096-0.5024 0.2512-0.2512 1.0048-0.7536 0.7536-0.2512 0.2512 0.2512 0.2512-0.2512 0.2512-0.2512 0.2512-0.2512v-0.2512l0.5024-0.2512 0.2512-0.2512-0.2512-0.2512-0.5024-0.2512h-0.5024l-0.5024-0.5024-0.7536-0.2512h-0.5024-0.5024l-0.5024-0.5024-0.5024-0.2512-0.2512-0.2512v-0.2512l-0.2512-0.5024-0.2512-0.2512-0.2512-0.5024-0.2512-0.2512 0.2512-0.2512-0.2512-0.2512h-0.5024l-1.0048-0.2512-0.2512-0.2512-0.5024-0.5024 0.2512-0.7536v-0.5024l-0.7536-0.5024-0.7536-0.2512h-0.2512l-0.5024-0.2512 0.2512 0.5024v0.5024l-0.5024-0.2512-0.5024-0.5024-0.5024-0.2512-0.5024-0.2512-0.2512-1.0048-0.5024-0.2512v-0.2512l-0.2512-0.5024v-0.2512l-0.2512-0.5024-0.2512-0.5024v-0.5024l-0.2512-0.2512h0.2512l-0.2512-0.2512h-0.2512l-0.2512-0.2512v-0.5024-0.2512l-0.2512-0.7536-0.2512-0.5024-0.5024-0.5024-0.2512-0.5024h-0.5024-0.5024l-0.2512-0.2512-0.5024-0.2512-0.2512-0.2512-0.2512-0.2512v-0.5024h-0.2512-0.5024l-0.2512-0.2512-0.2512-0.2512-0.2512-0.2512v-0.2512-0.2512l-0.2512-0.5024-0.2512 0.5024v0.7536l-1.0048 7.0336-16.328-1.7584 0.2512-9.7968h7.2848v-1.0048l0.5024-2.0096-2.2608-0.2512v-10.55-1.256l-3.0144-1.256-0.2512-0.2512-2.0096-0.5024-0.5024-0.2512-0.7536-0.5024-1.0048-0.2512-0.7536-8.5408-2.2608-0.2512-3.2656-1.256v-0.2512h-0.5024l-2.7632 0.5024h-0.2512l0.2512 5.5264h-1.7584l-0.2512-5.024-0.7536-0.2512-1.5072 0.2512h-0.2512-0.7536l-0.5024 3.2656h-4.0192l0.2512-3.0144 7.0336-5.2752h0.2512 0.2512 0.5024 0.2512 1.0048l1.256 0.2512h0.7536 1.0048 1.7584l0.2512-1.0048v-0.5024l0.2512-0.2512v-0.7536-1.7584-0.5024-0.2512-0.2512l0.2512 0.2512h1.7584l2.512 0.2512h1.0048l1.256 0.2512-0.5024 4.2704 1.5072-0.2512h1.256 0.5024l2.512-0.2512v-1.0048-1.256-1.256-2.2608-1.5072l1.256 0.2512 3.0144 0.5024v-0.7536-1.0048h0.2512l0.2512-0.2512 0.2512-0.7536-0.7536-0.2512v-1.0048l0.2512-2.2608 2.512 0.5024 0.7536-2.512 1.0048 0.2512 0.2512-6.28 4.5216 4.0192v-0.5024l3.0144 2.512 2.7632 0.2512v-2.2608l-0.2512-1.0048v-4.2704l-1.256-4.2704 2.2608-1.7584 1.256-0.7536v-0.7536l0.5024-0.2512 0.2512-0.2512 0.2512-0.2512h0.7536l0.2512-0.5024 3.0144-1.7584v-0.2512l0.7536-0.2512 1.5072-0.2512h1.0048v0.5024 1.256l-0.7536 1.256-0.5024 0.2512v0.2512l-0.2512 0.5024 1.0048-0.2512h1.256l0.7536 0.2512h0.5024l0.7536 0.2512 2.512 0.5024-0.2512-0.5024-0.5024-0.7536-1.0048-1.5072 0.2512-1.0048-0.5024-1.256v-0.2512l-0.2512-0.2512-0.2512-0.7536v-0.2512l-0.2512-0.5024-0.5024-1.256v-1.256-0.2512-0.5024h2.2608l1.5072-0.2512 0.5024-0.2512h1.5072l0.7536 0.2512 1.0048-0.2512 1.7584 0.7536v-0.2512-0.7536l-0.2512-0.7536 0.2512-1.0048 0.2512 0.2512 1.5072 0.2512 0.5024 0.2512h0.2512 1.256v2.0096l2.512 1.0048h0.2512l1.256 0.2512h0.7536l2.0096 0.2512h1.0048l-0.7536-2.2608v-0.2512l-0.5024-0.7536 0.2512-2.512-0.2512-1.256v-0.5024-0.7536l1.7584 0.5024 3.768 0.7536 0.2512 2.7632h0.5024l0.7536 0.2512 0.5024 0.2512 2.512 1.5072 0.5024 1.256 0.2512 0.5024 1.5072 0.5024"/>
		<path id="path7703" d="m232.67 444.92 1.256 0.2512 2.512-0.5024 0.5024 1.7584v1.256l1.0048 1.7584 1.0048 2.7632 0.2512 0.7536v0.2512h0.2512l0.5024 1.256 0.5024-0.2512h0.5024l3.2656 1.256 1.256 0.7536 1.5072 0.7536 2.0096 1.0048-1.7584 13.816-5.5264 5.2752v0.7536l1.7584 6.28 1.5072 7.2848 0.5024 0.2512 4.0192-4.0192h0.2512l0.2512-0.5024 3.768-3.768 1.256 0.5024h2.2608 1.5072l2.0096 0.2512 0.2512 0.5024h0.2512l0.2512 0.2512 0.2512 0.2512 1.0048 0.5024 0.5024 0.7536 2.2608 0.5024 2.512 0.5024 0.7536 0.5024h1.0048l0.7536 0.2512h0.5024l1.5072 0.7536 0.2512 0.2512 1.7584 0.2512-0.2512 0.7536-0.2512 0.5024-0.2512 0.7536-0.2512 1.0048-0.2512 1.0048 1.7584 0.5024 0.5024 0.2512h0.2512l0.2512 1.5072-0.2512 0.2512-0.5024 0.5024-0.2512 0.2512-0.2512 0.7536v1.0048l-0.2512 0.5024 1.256 2.0096 1.256 1.0048 1.5072 1.0048 2.0096-0.5024h4.0192l0.2512-1.256 0.5024-2.0096 1.256-3.2656 0.2512 0.2512h1.7584l0.2512 0.2512 1.0048-0.5024h0.2512l1.7584 0.7536 0.2512 1.7584h0.7536l0.7536 0.2512 0.5024 0.2512 0.5024-2.2608v-0.7536l0.7536-1.5072 0.2512-1.0048-0.5024-1.256 0.2512-0.7536 0.2512-0.5024-0.2512-0.7536 1.0048 0.5024h1.0048 0.7536 1.0048l0.2512 0.2512 0.5024 0.2512h0.2512l0.5024 0.2512 0.2512-0.2512 1.0048 0.2512h2.0096l0.2512 2.7632v0.2512l1.0048 0.2512 0.5024 0.5024 0.7536 0.2512 0.5024 0.7536 1.7584 1.0048 3.0144 2.0096 1.7584 0.2512 2.512 0.7536h1.5072l1.5072 0.2512 0.5024 0.2512 0.7536 0.2512 1.256 0.5024 1.256 0.2512 1.0048 0.2512h0.7536l4.0192 2.2608 1.5072 0.2512 1.256 0.5024 0.5024-1.256 1.7584 0.2512h0.5024l0.7536 0.2512 1.256 0.7536 1.0048 0.7536 0.5024 0.2512h0.5024l0.7536 0.2512 1.0048 0.2512 0.5024 0.5024 0.5024 0.5024 1.5072 1.0048 1.256 0.2512 0.7536 0.5024-3.0144 6.7824-0.2512 0.2512 5.024 2.0096-0.2512 2.2608 1.7584 0.2512 7.536 0.7536h1.256l0.2512 1.5072 0.2512 1.256 0.2512 1.7584v1.0048h0.5024l0.2512 1.5072 0.2512 1.5072 0.5024 3.2656 0.5024 1.7584v0.5024l0.2512 1.7584h-1.256l-2.7632 0.2512-1.256 0.2512-1.0048 0.7536h-0.5024l-0.7536 0.5024h-1.256l2.0096 14.067-3.5168 0.7536-4.5216 1.0048-10.55-1.5072 0.7536-2.2608 1.256-4.5216-1.256-4.7728v-0.5024h-0.2512l-2.2608 0.5024h-0.2512l-2.0096 1.256-2.0096-1.0048-1.5072-0.7536h-1.0048l-1.0048 0.2512 0.5024-2.7632 1.0048-5.2752v-0.7536l-0.2512-1.0048-1.7584-0.2512-0.2512-0.5024-1.0048-2.512-1.0048 0.2512-2.512 1.256-1.5072 0.5024-3.0144 1.256-1.256 0.5024h-4.5216v-1.256l-2.2608-0.2512-2.512-0.7536-3.5168-1.7584-2.7632-0.7536 0.2512 4.7728 0.2512 1.256 0.2512 1.5072 1.5072-0.2512h2.2608l-0.5024 3.5168-19.342-0.2512 1.256-2.7632 0.7536-3.0144-1.0048-0.7536h-0.7536l-5.7776-1.0048-1.256-0.2512v2.512l-0.2512 2.2608h-1.5072l-3.5168-0.5024 0.2512-3.768-1.256-0.5024-1.256-0.2512-1.5072 0.2512-0.5024 0.2512h-1.256-0.5024-0.7536l-0.7536-0.2512-0.5024-0.2512-1.0048-0.2512-1.0048-0.5024-0.5024-0.2512-1.0048-0.7536-0.7536-0.5024-0.2512 1.5072-2.0096 0.2512h-1.0048l0.2512-1.0048v-0.2512h0.2512l-0.7536-0.2512-7.2848-0.7536-0.2512 0.5024v0.5024l-2.512-0.2512v0.7536l0.2512 0.7536 0.2512 0.5024-8.0384-0.7536h-0.2512l0.5024 1.0048-0.2512 1.5072-0.2512 0.5024v2.0096l-0.2512 1.5072-0.5024 1.0048 1.5072 0.2512v0.5024 1.0048 0.5024h0.2512l0.2512 0.2512-0.2512 4.0192-1.0048-0.2512-0.5024-0.2512-3.2656-1.256-0.7536-0.2512 0.5024-1.7584 0.5024-2.512 0.2512-2.2608 0.2512-1.5072-2.512-1.0048-1.5072-0.2512-1.0048-0.5024-0.2512 1.0048-0.2512 1.5072-0.2512 1.5072v2.0096 0.2512l-0.2512 1.7584-0.5024 1.5072-1.5072-0.2512-1.256-1.256-0.2512 1.256-2.512-1.256-0.5024-0.2512-1.5072-0.2512-1.0048-0.7536-0.2512 2.2608v0.7536l-0.5024 1.0048h-1.256l-1.5072-1.256-0.7536-0.2512-2.0096-1.256-0.5024-1.256-0.2512-0.5024-0.2512-1.0048-0.2512-0.7536v-0.5024h-0.2512l-0.7536-0.2512-0.5024-0.2512h-0.2512-1.0048-1.256-0.7536l-1.5072-0.2512-2.0096-0.2512-0.5024 0.2512-1.5072-0.2512 1.256-8.5408h-3.0144v-2.512l-1.256-3.2656 0.2512-1.256 0.7536-1.256 0.2512-1.0048v-1.256l-0.5024-2.0096v-1.0048-0.7536-0.2512-0.5024-1.0048l4.5216 1.0048 4.5216 1.0048h0.2512v-0.2512l0.2512-1.5072 0.7536-4.2704-4.5216-1.0048 0.2512-1.5072-0.2512-0.2512-1.0048 0.5024h-0.5024l-0.2512 0.2512h-1.256-0.7536l0.2512-0.5024-0.2512-0.7536 0.5024-1.7584 0.5024 0.2512 1.0048-0.2512h1.0048l1.0048-0.5024h0.2512l1.256 0.2512 0.2512-0.2512h0.7536l0.2512 0.5024 1.256 0.5024h0.2512l0.2512 0.5024 0.2512 0.5024v0.2512l1.5072-0.5024 2.0096-1.5072 0.5024-0.7536 0.5024-0.5024 1.5072-1.5072 0.7536-1.7584-4.0192-0.2512 0.2512-0.5024 5.024-6.0288 1.256-2.2608 0.2512-0.2512v-0.5024l0.2512-1.0048h4.5216l-0.5024-2.512-1.5072 0.2512-1.0048 0.2512-1.0048 0.2512-0.7536 1.256-0.7536-1.256-1.5072 1.0048-3.0144-1.256-4.2704-2.0096-1.7584 4.5216-4.2704-1.0048 0.2512-0.2512 1.0048-4.2704-4.5216-1.0048v-0.5024l0.7536-2.7632-0.7536 0.5024-0.5024 0.5024-0.2512-0.2512-0.5024 1.256-0.5024-0.2512-0.2512-7.0336-0.7536-0.2512 1.256-5.5264 1.256-3.5168-4.0192-5.024 1.256-0.2512 1.5072 0.5024 2.512 2.512 0.7536 0.2512 1.7584 0.5024h1.5072l0.7536-0.2512h0.5024l0.5024-0.2512h0.7536l0.2512-0.2512h1.256v-0.7536h1.256l0.2512-0.7536 0.5024 0.2512v-0.2512h0.5024v1.256 0.5024h0.2512l-0.2512 2.2608 1.7584 0.2512 5.7776 0.7536 0.2512-0.2512-1.0048-4.2704 0.5024-2.0096v-0.5024l0.2512-1.7584v-0.2512-1.0048l0.2512-0.5024v-0.7536l0.2512-1.256 0.5024-2.0096 0.2512-0.7536 0.2512-0.7536 0.7536-1.256 0.5024-0.5024 0.5024-0.5024 0.7536-0.2512 1.0048-0.5024 0.5024-0.5024 2.0096-1.5072 2.0096-1.0048-1.5072 2.7632 2.0096 0.7536 1.0048 0.2512 2.2608 0.5024"/>
		<path id="path7712" d="m108.58 596.39h1.0048 0.5024 1.256l2.2608-0.2512h0.7536l0.7536-0.2512 0.7536-0.2512 1.0048 0.2512 0.7536-0.2512 1.7584-1.256v-1.0048h0.5024l3.2656-0.5024h0.7536l4.7728 0.7536 3.768 1.0048 2.0096 2.0096 2.2608 1.7584 3.768 1.5072 3.0144 2.2608h0.2512l1.0048 1.0048 1.256 1.256 1.0048 0.5024-0.2512 1.0048-0.2512 0.7536-0.5024 0.7536-0.5024 1.0048-0.5024 0.5024h-0.5024l-0.2512 0.5024 0.7536 3.2656 0.7536 7.2848 0.7536 0.5024-0.7536 2.2608 1.7584 1.256h1.0048l-0.2512 0.7536v1.5072h-0.5024v1.0048l-0.2512 1.0048v1.5072h1.0048l0.7536 0.2512v0.5024h-1.0048l-0.2512 1.0048 1.5072 0.5024-0.2512 2.7632-0.5024 2.512 1.0048 0.2512 0.2512 2.0096-1.7584-0.5024-0.2512 0.5024h-1.256l-0.2512 0.7536-0.2512 1.5072v1.0048l-0.2512 1.256v2.2608l-0.2512-0.2512h-0.5024l-1.7584-0.2512-1.5072-1.0048-0.7536-0.2512-2.2608-0.2512h-0.2512l-1.7584-0.7536-2.0096 5.024-2.512-0.5024-2.2608-0.7536-2.0096 2.7632v0.2512l-0.2512 0.2512h0.2512 0.2512l0.5024 0.2512-0.2512 2.7632v0.2512l-0.2512 1.0048 5.7776 0.5024h3.0144l0.5024-0.7536 1.7584-2.0096v0.5024l5.024 1.7584-0.2512 0.7536v0.7536l-0.5024 5.7776 9.2944 1.5072-0.5024 6.5312-13.565-1.7584 1.5072-6.5312-2.2608-0.2512v-0.2512l-0.2512-0.2512-0.2512 0.7536h0.5024l-0.7536 4.7728-2.0096 13.816 1.7584 3.5168-5.024 1.7584h0.2512l0.7536 0.2512 1.256 0.2512 0.5024 1.7584 1.256 3.768 3.0144-1.5072 1.0048 4.7728-14.318 3.5168 0.5024-3.0144 1.0048-3.0144-1.0048-0.2512-4.7728-2.0096-0.5024-0.2512-1.256-2.0096-0.7536-0.2512-0.2512 0.5024v0.2512l-1.256 3.768v1.256l-0.5024 1.7584-0.2512 1.0048-3.5168-1.7584-2.512-0.7536-4.0192-0.5024-1.256 8.792-1.0048 8.2896-9.0432-2.512 1.7584-7.7872v-0.2512l2.0096-7.536 2.512-10.048-8.2896-2.0096-1.0048 2.0096-0.2512 1.5072h-1.0048l-2.0096-2.512-2.7632-0.5024-6.0288-0.7536 0.5024-5.2752-4.7728-0.7536-2.512-0.2512 0.5024-2.512h0.2512l0.2512-0.7536 2.0096 1.5072 6.0288 2.2608 1.5072-5.7776 3.0144 1.0048 3.768-7.0336-6.5312-2.512-5.5264 7.2848-3.768-0.7536-1.7584-0.5024h-1.0048l-0.7536-1.0048 0.2512-0.5024-1.0048-1.0048-3.768-3.0144-1.0048 1.5072 0.7536 0.2512 2.2608 1.7584 0.5024 0.5024 0.2512 0.2512 0.2512 0.2512 1.256 0.5024-0.7536 1.256-1.7584 3.0144-5.2752-3.2656-5.2752-2.2608 3.2656-5.7776 2.7632-4.2704 5.2752 4.5216 0.7536-5.7776 2.512 0.2512 0.7536-2.2608 0.5024-1.5072 2.7632 0.5024 1.5072-7.0336 12.56 1.0048 3.2656 0.2512-1.256-4.2704-0.5024-0.7536-1.0048-1.0048-15.072-1.7584-1.7584 0.5024-8.2896 2.7632 2.0096-14.57v-1.5072h0.5024 0.5024l5.7776 0.7536 5.5264 0.5024v-0.2512-0.2512l0.2512-0.7536 0.5024-1.256 0.2512-0.7536 0.2512-1.0048 0.2512-1.0048 0.2512-0.7536 0.2512-0.7536 1.0048-3.5168 0.2512-1.0048 0.5024-1.256v-0.2512l0.2512-0.2512 0.2512-1.256 0.2512-1.0048 0.5024-1.256 0.2512-0.5024v-0.2512-0.2512l0.2512-1.0048 0.2512-0.7536 0.5024-1.0048v-0.2512-0.5024l0.7536-2.2608 2.0096 0.2512 2.2608 0.7536 1.5072 0.2512-2.0096 4.7728-0.2512 1.0048h0.2512v0.2512 0.2512l-0.2512 0.2512h0.2512l0.2512 0.2512v0.2512h0.2512l-0.2512 0.2512v0.2512h0.2512l0.2512 0.2512h0.2512l0.5024 0.2512v0.2512 0.2512l-0.2512 0.2512 9.0432 3.2656 0.5024-3.5168 0.5024-2.7632 1.0048-2.2608-0.7536-2.512 4.7728-12.56v0.5024l-0.5024 3.0144v1.5072l1.256 0.2512"/>
		<path id="path7715" d="m211.57 596.9 2.512 0.7536h1.0048v0.7536l-0.2512 0.2512v0.5024l-0.2512 0.5024-0.2512 0.7536v0.2512l-0.5024 0.7536-0.5024 1.256-0.2512 1.0048-0.7536 1.256-1.256 1.256-1.7584 2.512-2.0096-1.0048-1.5072 2.0096 3.5168 2.0096-3.768 4.2704h-0.2512l-0.2512 0.5024-0.5024 3.768h0.5024v2.0096h-0.2512l-0.7536 3.768 1.0048 1.5072 0.5024 0.2512 0.2512 0.5024 0.5024 0.5024-2.0096 3.2656 8.792-0.2512 0.2512-0.7536 0.2512-0.2512v-0.2512l0.2512-0.7536v-0.5024l0.2512-1.0048 0.2512-0.5024 0.2512-0.2512v-0.2512-0.2512l0.2512-1.0048v-0.5024l-0.2512-0.5024v-0.5024l1.0048 0.5024 0.5024 0.2512 0.2512-0.2512-0.2512 0.5024h0.2512 0.7536 0.2512 0.7536l0.5024 0.2512 0.7536 0.2512h0.7536 0.7536 0.2512l0.5024 0.2512 2.0096 0.2512h0.7536 0.5024l1.0048 0.2512 4.7728 0.2512-0.7536-11.304 0.7536-0.5024 1.256-0.2512h0.2512l1.5072 0.2512h0.5024 0.5024l1.256 0.5024 1.0048 0.2512 0.2512-0.5024 2.2608 2.0096-0.2512 6.28-1.0048-0.2512-0.7536 2.512-2.512-0.5024-0.2512 2.2608v1.0048l0.7536 0.2512-0.2512 0.7536-0.2512 0.2512h-0.2512v1.0048 0.7536l-3.0144-0.5024-1.256-0.2512v1.5072 2.2608 1.256 1.256 1.0048l-2.512 0.2512h-0.5024-1.256l-1.5072 0.2512 0.5024-4.2704-1.256-0.2512h-1.0048l-2.512-0.2512h-1.7584l-0.2512-0.2512v0.2512 0.2512 0.5024 1.7584 0.7536l-0.2512 0.2512v0.5024l-0.2512 1.0048h-1.7584-1.0048-0.7536l-1.256-0.2512h-1.0048-0.2512-0.5024-0.2512-0.2512l-7.0336 5.2752-0.2512 3.0144h4.0192l0.5024-3.2656h0.7536 0.2512l1.5072-0.2512 0.7536 0.2512 0.2512 5.024h1.7584l-0.2512-5.5264h0.2512l2.7632-0.5024h0.5024v0.2512l3.2656 1.256 2.2608 0.2512 0.7536 8.5408 1.0048 0.2512 0.7536 0.5024 0.5024 0.2512 2.0096 0.5024 0.2512 0.2512 3.0144 1.256v1.256 10.55l2.2608 0.2512-0.5024 2.0096v1.0048h-7.2848l-0.2512 9.7968 16.328 1.7584 1.0048-7.0336v-0.7536l0.2512-0.5024 0.2512 0.5024v0.2512 0.2512l0.2512 0.2512 0.2512 0.2512 0.2512 0.2512h0.5024 0.2512v0.5024l0.2512 0.2512 0.2512 0.2512 0.5024 0.2512 0.2512 0.2512h0.5024 0.5024l0.2512 0.5024 0.5024 0.5024 0.2512 0.5024 0.2512 0.7536v0.2512 0.5024l0.2512 0.2512h0.2512l0.2512 0.2512h-0.2512l0.2512 0.2512v0.5024l0.2512 0.5024 0.2512 0.5024v0.2512l0.2512 0.5024v0.2512l0.5024 0.2512 0.2512 1.0048 0.5024 0.2512 0.5024 0.2512 0.5024 0.5024 0.5024 0.2512v-0.5024l-0.2512-0.5024 0.5024 0.2512h0.2512l0.7536 0.2512 0.7536 0.5024v0.5024l-0.2512 0.7536 0.5024 0.5024 0.2512 0.2512 1.0048 0.2512h0.5024l0.2512 0.2512-0.2512 0.2512 0.2512 0.2512 0.2512 0.5024 0.2512 0.2512 0.2512 0.5024v0.2512l0.2512 0.2512 0.5024 0.2512 0.5024 0.5024h0.5024 0.5024l0.7536 0.2512 0.5024 0.5024h0.5024l0.5024 0.2512 0.2512 0.2512-0.2512 0.2512-0.5024 0.2512v0.2512l-0.2512 0.2512-0.2512 0.2512-0.2512 0.2512-0.2512-0.2512-0.7536 0.2512-1.0048 0.7536-0.2512 0.2512-2.0096 0.5024 0.2512 0.7536-0.2512 2.7632v1.5072l-1.0048 4.5216-2.0096 4.0192-4.7728-1.256-0.7536 2.512-0.5024 0.5024-0.7536 2.2608h1.5072l3.5168 1.256 5.7776-7.536 6.0288 1.7584 3.0144 0.5024 2.2608 0.5024-0.2512 0.7536-0.2512 9.7968v0.5024l-0.2512 1.7584-0.7536 1.7584-0.2512 0.2512-1.256 2.0096v0.7536l-12.56-6.7824-9.0432-5.7776-1.0048-0.7536 3.5168-8.5408h-2.7632-8.792l0.2512 10.802h-2.7632l4.2704 3.768 0.5024 0.5024 2.512 0.5024v-0.5024h0.7536l4.7728 1.256 6.7824 2.2608-2.0096 8.5408 6.7824 1.0048 1.256-4.2704 6.28 3.2656-2.0096 7.0336 5.024 4.2704 7.2848 8.5408 0.2512 0.2512 0.2512 0.2512 0.5024 1.0048v0.2512l0.5024 0.7536v0.2512 0.5024l0.2512 0.2512v0.5024 0.2512l0.2512 0.7536 0.2512 0.5024 0.5024 0.2512 0.2512 0.7536 0.2512 2.0096 4.0192 0.7536 4.7728 1.0048 1.0048 5.024-1.5072 3.0144-7.536 20.347h-2.7632l-0.7536-2.0096-0.2512-2.0096-0.5024-1.0048-4.5216-8.5408 7.0336-6.0288 1.0048-1.0048-1.5072-2.0096-0.5024-1.7584-0.5024-1.5072-0.2512-1.0048-0.5024-2.0096-0.2512-1.256-1.0048-1.5072-0.7536-1.256-3.5168-6.5312v-0.2512-0.2512l-0.2512-0.7536-0.2512-0.7536v-0.2512l-1.5072-4.2704-5.2752-0.2512-4.0192-0.2512h-0.7536l-0.2512 0.2512h-1.0048l-1.0048-0.2512-2.0096-0.5024h-2.7632l0.5024 4.2704-0.7536 3.0144-0.5024 1.256-1.0048-0.5024-3.2656-1.256v-0.7536l0.2512-0.5024-0.5024-1.256-0.2512-2.2608-5.2752-1.256-0.5024-3.2656-0.7536-2.7632v-2.0096l-10.048-0.2512 0.2512 1.7584v1.7584l1.256 0.5024 3.2656 2.2608 1.7584 0.5024 0.2512 0.2512 1.7584 0.7536 2.0096 0.2512-2.7632 7.2848-9.2944-4.0192 1.5072-19.342-5.7776-0.5024 0.2512-0.2512 1.0048-11.555-21.603-0.2512v-9.5456l-1.5072 0.7536-1.5072 1.256-0.2512 1.0048-1.256 1.5072-2.7632 2.0096-2.0096-4.0192-1.5072 0.7536-3.768 3.768-5.024 0.5024 0.2512-3.5168-0.2512-3.768-9.2944-1.7584h-2.2608l-2.2608 0.7536h-1.5072l-1.0048-0.2512-4.7728-0.2512-2.7632 0.5024-0.7536-0.2512-2.0096-0.2512 0.7536 5.2752-0.2512 3.2656v4.2704l0.2512 2.0096-0.7536 0.2512h-2.512-1.5072l-4.7728 0.7536-4.7728 0.7536 0.2512 0.5024 0.5024 0.7536 0.2512 0.5024 0.2512 2.7632v0.7536 0.5024l0.2512 0.7536 0.2512 0.2512 0.2512 0.5024v2.7632l0.5024 1.5072v0.5024l-1.0048 0.2512h-1.0048-0.7536l-1.256-0.2512h-0.7536l-2.512-1.0048-2.2608-1.7584-0.5024-0.2512-1.256-0.7536h-1.256l-2.512-1.0048-1.5072-0.5024h-1.0048v0.5024l0.2512 0.2512 0.2512 1.0048 0.2512 0.5024 0.5024 0.7536 0.2512 0.7536v0.2512l0.7536 2.7632 0.5024 2.512 0.5024 5.024-4.5216 0.2512h-0.7536l-0.7536-0.2512-5.024 0.7536-1.5072-0.2512-1.256-0.7536h-0.7536-0.2512-0.2512l-4.2704-0.5024-0.2512-0.2512-6.0288-4.0192-1.7584-6.28-1.7584-4.2704 0.5024-1.0048 5.024-4.5216 4.0192-4.0192 1.7584-1.5072v-0.2512l0.2512-0.5024 0.7536-2.2608 0.5024-0.7536 0.7536-2.512 1.5072-2.7632-2.7632-2.0096-0.5024-0.5024-1.0048-0.7536 3.5168-4.7728 2.0096-3.5168 0.2512-1.0048 0.5024-1.7584v-1.256l1.256-3.768v-0.2512l0.2512-0.5024 0.7536 0.2512 1.256 2.0096 0.5024 0.2512 4.7728 2.0096 1.0048 0.2512-1.0048 3.0144-0.5024 3.0144 14.318-3.5168-1.0048-4.7728-3.0144 1.5072-1.256-3.768-0.5024-1.7584-1.256-0.2512-0.7536-0.2512h-0.2512l5.024-1.7584-1.7584-3.5168 2.0096-13.816 0.7536-4.7728h-0.5024l0.2512-0.7536 0.2512 0.2512v0.2512l2.2608 0.2512-1.5072 6.5312 13.565 1.7584 0.5024-6.5312-9.2944-1.5072 0.5024-5.7776v-0.7536l0.2512-0.7536-5.024-1.7584v-0.5024l-1.7584 2.0096-0.5024 0.7536h-3.0144l-5.7776-0.5024 0.2512-1.0048v-0.2512l0.2512-2.7632-0.5024-0.2512h-0.2512-0.2512l0.2512-0.2512v-0.2512l2.0096-2.7632 2.2608 0.7536 2.512 0.5024 2.0096-5.024 1.7584 0.7536h0.2512l2.2608 0.2512 0.7536 0.2512 1.5072 1.0048 1.7584 0.2512h0.5024l0.2512 0.2512v-2.2608l0.2512-1.256v-1.0048l0.2512-1.5072 0.2512-0.7536h1.256l0.2512-0.5024 1.7584 0.5024-0.2512-2.0096-1.0048-0.2512 0.5024-2.512 0.2512-2.7632-1.5072-0.5024 0.2512-1.0048h1.0048v-0.5024l-0.7536-0.2512h-1.0048v-1.5072l0.2512-1.0048v-1.0048h0.5024v-1.5072l0.2512-0.7536h-1.0048l-1.7584-1.256 0.7536-2.2608-0.7536-0.5024-0.7536-7.2848-0.7536-3.2656 0.2512-0.5024h0.5024l0.5024-0.5024 0.5024-1.0048 0.5024-0.7536 0.2512-0.7536 0.2512-1.0048 1.256 1.7584 5.2752 3.2656 0.5024 0.5024 0.5024-2.512 0.2512-0.7536 3.0144 1.256 2.512 1.256 0.2512-3.2656 0.2512-0.5024 3.0144 1.0048 0.2512 0.2512-0.7536-5.024 1.0048-0.2512 2.2608 0.2512-0.2512 1.7584-0.2512 1.5072 0.2512 1.0048-0.2512 0.2512 2.0096 0.5024h2.0096l0.7536-2.2608 0.5024-1.0048 0.5024-1.256 1.5072 0.5024 1.256 0.7536 0.2512-1.0048 0.2512-0.5024 2.512-4.5216 1.0048-2.0096 1.7584-0.2512 0.7536 1.256 2.512 1.0048 6.28 1.5072 0.2512-0.2512 0.2512-1.0048v-0.7536l2.2608-1.256h0.7536 1.0048 0.7536l1.7584 0.5024v1.7584l0.2512 1.256 0.7536 0.2512 0.7536 0.2512h0.2512v1.256 1.256h0.7536 0.7536 0.5024l1.0048 0.2512v-0.7536l0.2512-1.5072 3.5168 0.2512 1.5072 0.2512h1.0048 2.512v-0.7536l0.2512-1.0048-0.7536-0.2512h-0.5024l-1.0048-0.2512v-1.0048l1.256 0.2512 1.0048 0.2512 0.5024-1.5072"/>
		<path id="path7718" d="m188.46 522.79v0.2512l10.802 0.5024v2.512h3.0144l-1.256 8.5408 1.5072 0.2512 0.5024-0.2512 2.0096 0.2512 1.5072 0.2512h0.7536 1.256 1.0048 0.2512l0.5024 0.2512 0.7536 0.2512h0.2512v0.5024l0.2512 0.7536 0.2512 1.0048 0.2512 0.5024 0.5024 1.256 2.0096 1.256 0.7536 0.2512 1.5072 1.256 5.024 2.2608 0.2512-1.7584 3.5168 0.2512h0.2512v0.7536l1.5072 0.2512-0.2512 1.7584 0.7536 1.7584 0.7536 2.2608 1.256-0.2512 1.0048-0.5024 0.2512-0.5024v0.2512 1.0048l-0.2512 0.7536v2.0096l2.512-0.2512-0.2512 0.7536-0.2512 1.7584 0.5024 1.5072 2.2608-0.2512-1.256 1.256-0.2512 2.0096h1.5072v0.2512l-0.2512 0.7536v2.0096l-0.7536-0.2512h-0.2512l-0.2512 2.512-3.2656-0.5024v2.0096l1.7584 1.0048h3.2656 1.0048v-1.5072-1.0048h1.7584l0.2512-0.2512h1.7584l0.2512 1.0048v0.7536 0.2512l0.2512 1.256 1.0048 1.0048 0.7536 0.7536 1.5072 0.2512 1.0048 0.7536v0.2512l0.2512 0.5024v0.5024 0.7536h-1.256l-0.2512-0.5024-3.2656-0.2512-0.2512 1.0048-0.7536 0.2512-1.256-0.2512-2.0096-1.5072-3.2656-1.7584-1.5072-0.7536-0.5024 2.7632h0.5024l-0.5024 1.7584h-0.5024l-0.2512 1.0048-0.2512 1.7584h-0.7536l-0.2512 1.0048h0.5024l-0.2512 2.0096 0.7536 0.2512 0.7536 0.2512h0.7536l1.0048 0.2512 2.512 0.2512 0.5024-3.5168h0.5024l1.0048 1.0048 3.768-1.7584 0.5024 0.5024 0.5024 0.2512 0.2512 0.5024 0.5024 0.5024 2.0096-0.2512 0.7536-0.2512 0.2512-1.256v-0.2512-0.5024l1.5072 0.7536h0.2512l0.7536 0.5024 1.5072 0.5024 0.5024-0.5024 0.7536-1.5072 3.0144 0.2512-0.2512 1.256-0.2512 2.0096v0.5024l0.5024 0.5024h1.7584v1.256h-0.2512v2.7632l-0.2512 1.7584 0.2512 0.2512 2.2608 1.0048h0.5024l0.2512-0.2512 0.7536 0.2512 0.2512-0.2512h0.5024l0.5024-0.2512h0.7536 1.0048 1.0048l0.5024 2.2608h2.512v-1.256l-0.2512-1.256h1.256l1.0048-0.2512 1.256 0.2512 0.2512-1.5072 0.2512-1.5072-1.7584-0.2512h-3.0144l-2.2608 0.5024-2.0096 0.2512-0.7536-0.2512v-1.5072l-0.2512-1.256 1.0048-0.2512h0.2512 0.7536l1.256 0.2512-0.2512-2.0096-0.2512-0.2512h1.7584l1.0048 0.5024 1.7584-0.2512h2.0096l1.5072-0.7536 1.0048-0.2512v4.0192l0.5024 2.2608 2.7632 0.7536-0.2512 2.2608-0.7536 1.5072-0.2512 0.2512v0.7536 0.2512l-0.5024-0.2512h-1.7584l-0.2512 0.5024-0.5024 1.0048v1.0048 0.7536l1.7584 0.2512h0.5024 0.7536l0.7536 0.2512h0.5024v0.2512 0.5024 1.0048l-0.2512 1.0048-0.2512 1.0048v0.5024 0.5024l0.2512 0.2512h-1.256-0.2512l-0.5024-0.2512-1.5072-0.2512-0.2512-0.2512-0.2512 1.0048 0.2512 0.7536v0.7536 0.2512l-1.7584-0.7536-1.0048 0.2512-0.7536-0.2512h-1.5072l-0.5024 0.2512-1.5072 0.2512h-2.2608v0.5024 0.2512 1.256l0.5024 1.256 0.2512 0.5024v0.2512l0.2512 0.7536 0.2512 0.2512v0.2512l0.5024 1.256-0.2512 1.0048 1.0048 1.5072 0.5024 0.7536 0.2512 0.5024-2.512-0.5024-0.7536-0.2512h-0.5024l-0.7536-0.2512h-1.256l-1.0048 0.2512 0.2512-0.5024v-0.2512l0.5024-0.2512 0.7536-1.256v-1.256-0.5024h-1.0048l-0.7536-0.5024-1.256-0.5024h-0.2512l-0.7536-0.2512h-1.0048v-2.2608l-0.5024-0.2512h-0.7536-0.7536-0.5024l-1.7584-0.2512-1.256 0.2512-1.256-0.5024-1.7584 0.2512-2.0096-0.5024 0.2512-1.7584-2.2608-0.7536-1.7584-0.5024v-0.2512-0.7536l-2.7632-0.2512 0.2512-3.2656-2.512-0.2512 0.2512-0.7536 1.7584-2.2608-0.2512-2.512v-0.2512-0.5024l-19.845-2.0096v0.5024h-2.0096l-0.2512 2.7632h-1.7584l-0.2512 0.2512h-6.7824-1.5072v2.0096l-0.5024 2.0096-3.0144-0.7536h-1.0048-0.5024-0.7536l-1.5072 0.2512-2.0096 0.5024-0.5024-0.5024h-0.5024-1.0048l-0.7536-0.2512-1.5072-0.5024-1.0048-0.7536-0.7536 2.2608-3.768-1.256-2.2608 7.0336-2.512-1.0048-0.7536-1.256-1.7584 0.2512-1.0048 2.0096-2.512 4.5216-0.2512 0.5024-0.2512 1.0048-1.256-0.7536-1.5072-0.5024-0.5024 1.256-0.5024 1.0048-0.7536 2.2608h-2.0096l-2.0096-0.5024 0.2512-0.2512-0.2512-1.0048 0.2512-1.5072 0.2512-1.7584-2.2608-0.2512-1.0048 0.2512 0.7536 5.024-0.2512-0.2512-3.0144-1.0048-0.2512 0.5024-0.2512 3.2656-2.512-1.256-3.0144-1.256 0.5024-1.5072v-1.5072l2.0096 0.7536 1.256 0.2512 2.0096-17.584-3.768 0.2512v-0.2512-0.5024l0.2512-0.2512-0.5024-1.256-0.2512-1.5072-0.5024-1.0048-0.5024-1.0048-0.7536-0.7536-1.256-2.2608-0.2512 3.0144-8.5408-2.7632 0.2512-8.5408v-0.2512l-0.2512-1.7584-3.768 0.2512 0.2512-5.024h-1.0048l-0.2512 0.7536-0.5024-0.2512-1.0048 5.024-2.512 0.2512v1.256l-1.256-0.2512v-0.7536l-4.7728-3.5168-1.256-1.5072-0.5024 4.7728-0.2512 1.5072-0.5024 2.7632-1.256 10.299-4.2704 1.256 0.5024-2.7632-0.2512-2.0096-0.2512-1.256-0.5024-1.5072-0.2512-1.5072-0.7536-2.2608 0.5024-1.0048v-0.2512-1.256l-0.2512-1.0048v-1.256-1.0048l0.2512-1.0048 0.7536-1.5072 1.0048-1.5072 2.2608-3.2656 1.5072-2.0096 0.7536-1.0048 4.2704-5.024 1.0048-1.0048 1.7584 0.2512 0.7536 0.2512 1.5072 0.2512 0.7536 0.5024h0.2512l1.256 0.7536 0.2512-0.2512h0.2512l1.256 0.2512 2.2608 0.7536 1.5072 0.2512h0.7536l1.256-0.2512 2.7632 0.2512h1.5072l1.5072-0.7536-0.7536-1.7584 2.512 1.0048 2.512 1.7584 1.0048-0.5024-2.7632-4.5216v-1.0048l2.2608-0.2512 2.0096-8.2896 4.7728-2.512v-0.2512l4.5216 1.0048 1.256 0.5024 1.0048 0.2512 0.5024 0.2512 2.0096 0.2512 0.5024-3.768h-0.7536l-1.5072-4.2704-4.2704-1.5072-0.2512-0.5024-0.7536-1.0048-0.2512-0.5024v-0.7536-0.2512l0.2512-0.7536-0.7536-1.256-0.7536-0.5024-1.256-1.5072-0.7536-1.0048-0.5024-0.7536h-0.5024 3.2656l2.2608 0.2512 4.5216 0.2512 4.5216 0.7536-0.7536 6.5312 2.2608 0.2512 3.5168 0.2512 2.2608 0.2512h1.256l1.256 0.2512h1.7584 0.2512 0.2512l0.2512-2.2608v-0.7536l0.5024-3.2656h-1.7584l-0.2512-1.7584 0.2512-1.5072 1.7584 0.2512v1.256"/>
		<path id="path7727" d="m361.54 284.4v1.5072l-0.5024 4.7728 8.2896-1.0048 0.2512 5.024-1.256 6.0288 4.7728 0.5024-0.2512 1.7584h0.5024l-0.5024 3.768-3.5168-0.5024-0.5024 7.0336-1.256-0.2512h-1.256-0.5024l-2.2608 2.0096-0.5024 0.5024-0.2512 1.5072-0.2512 1.256-0.2512 1.256-0.2512 1.0048v1.0048l0.2512 1.256 0.5024 2.0096v1.0048 1.256 0.2512l-1.256 3.2656-0.2512 0.2512-0.2512 0.7536-1.5072-0.2512h-1.0048l-3.5168 3.5168v-1.7584h-2.0096v-0.7536h-1.7584l-0.2512 1.0048-0.5024-0.2512-0.2512 3.5168 2.512 0.2512-0.2512 0.2512-0.7536 1.0048-0.2512 0.2512v0.2512 0.5024l0.2512 0.7536 0.2512 0.2512 0.2512 0.5024-0.2512 0.5024 0.2512 0.5024 0.5024 0.5024v1.0048 0.2512l-0.2512 1.256h-0.2512l-0.2512 3.768-0.5024 3.0144-0.2512 1.7584v0.7536 0.2512l1.0048 5.2752h0.2512l0.2512 1.7584v0.5024l-2.2608-0.5024-0.7536 3.2656-0.2512 0.2512 2.7632 0.5024v-1.0048h0.5024v-0.2512l3.5168-2.7632-0.7536 6.0288 6.0288 0.7536-0.2512 5.7776 0.2512 9.5456h-0.2512l-0.2512 1.0048v0.2512h0.7536v0.2512h3.0144l3.5168 0.2512 1.0048-0.2512 0.2512-0.5024 5.5264 1.0048 2.7632 0.2512-0.2512-2.0096 5.024 1.0048 3.0144-0.5024-0.2512 1.256-0.5024 1.5072-1.5072 6.0288 13.314 1.7584 1.7584 1.0048h0.5024l1.256 13.314-1.0048-0.5024-3.768-1.7584h-0.5024l-0.7536-0.5024-1.0048-0.2512-2.0096-0.7536-1.7584-0.5024-2.7632-1.0048v-0.2512l-3.2656-0.7536-1.256-0.5024-1.0048 0.2512-1.5072 0.5024-6.7824-1.7584h-0.2512l-0.2512-1.7584-3.5168-1.7584-0.7536-0.2512v-2.0096-0.7536-0.7536-0.5024l-0.2512-1.5072 0.2512-1.0048v-0.5024h-1.5072l-4.2704 7.2848-0.7536-0.5024v7.0336l-0.5024-0.2512h-0.2512l-0.5024-0.2512-0.7536-0.2512-0.5024-0.2512-0.2512-0.2512-1.0048-0.5024-1.256-0.5024h-0.2512l-1.0048-0.2512-1.7584-0.7536-0.5024-0.2512 0.2512 1.0048-1.5072-0.2512 0.2512-2.0096 0.2512-0.7536v-1.5072l0.2512-0.7536-2.7632-1.5072 2.2608-4.5216h-1.5072l-1.7584-0.2512v-0.2512h-1.256l-0.7536-0.7536-0.5024-0.5024-0.2512-0.2512-0.7536-1.256-0.7536-0.7536-0.7536-1.0048h-0.2512l-0.2512-0.5024-0.2512-0.5024-2.7632-0.2512-1.5072-0.2512 0.2512-1.256v-1.0048-0.5024l0.2512-0.5024v-0.5024l0.2512-1.5072-1.0048-1.256-0.2512-0.5024h-0.2512l-0.2512-0.7536-0.7536-0.5024-0.5024-0.7536-0.5024-1.0048-1.0048-2.0096-0.5024-0.5024-0.2512-0.5024-0.2512-0.7536-1.256-0.2512h-0.7536v-0.2512h-1.0048-0.2512l-0.2512-0.7536v-0.7536h-0.7536-0.5024l-0.5024-0.2512h-0.5024-1.0048v-0.5024-0.7536l-0.2512-0.2512-0.2512-0.2512-0.5024-0.2512-0.5024-0.2512-0.7536-0.2512h-0.5024-0.5024-0.5024-0.2512-0.5024l-0.2512 0.5024-3.2656-3.768h-0.5024l-1.256-0.2512-1.0048-0.7536h-0.7536l-4.0192-0.5024 0.2512-3.0144-1.256-0.2512 0.7536-8.5408 1.0048-8.5408-13.816-7.2848h0.2512v-2.512h0.2512l-0.2512-2.2608v-0.5024-0.2512-0.2512-0.2512l0.2512-0.5024v-0.5024-0.5024l0.2512-0.5024v-0.5024-0.2512l0.2512-0.5024 0.2512-0.2512 0.5024-0.5024 0.5024-0.7536 0.2512-0.5024v-0.5024l0.2512-0.7536v-1.0048l0.2512-1.0048h0.5024l1.256-0.2512h0.5024 0.5024 0.5024l0.5024 0.2512 1.7584-0.2512 2.7632 0.5024 1.256 0.2512 6.0288 2.2608 5.024 1.5072 0.5024-3.2656 3.768-0.2512-4.0192-14.067-11.555-0.7536 0.5024-6.28-10.299-1.256 3.2656-12.309 5.024 0.7536 7.536-0.2512 0.7536 2.512 0.5024 2.2608 0.7536 2.7632-0.7536 0.2512-1.7584 1.0048-1.5072 1.0048-0.7536 0.2512-2.0096 1.256 0.2512 0.7536 1.256 0.2512h0.2512l0.7536-0.2512h0.2512 0.7536 1.7584 1.7584 1.0048l3.768 0.2512 1.7584 0.2512h0.7536l6.7824 0.5024v-1.256h-0.2512l0.5024-3.2656 7.536 0.7536 2.7632 0.2512v-0.2512l1.0048 0.2512 1.7584-4.7728-2.2608-0.2512-0.2512 1.0048h-1.0048l-9.2944-1.0048 0.5024-4.0192 4.0192 0.2512 5.024-0.5024 4.0192 0.5024 2.512-2.0096 0.7536 0.7536h0.7536l0.5024 0.2512h3.5168l1.7584 0.5024 1.0048-0.2512 1.256-0.2512 2.2608-0.2512"/>
		<path id="path7745" d="m420.07 275.61 0.5024 3.2656 6.0288-1.7584 1.0048 6.28-6.28 1.7584 0.2512 3.5168 1.7584-0.5024 0.2512 1.7584 14.821-1.5072v0.7536l-0.5024 2.512-0.5024 3.0144v0.2512l0.2512 1.0048 0.2512 1.0048 0.2512 0.5024 0.2512 1.256 0.5024 0.7536 3.5168 4.0192 2.0096 2.0096 1.256 1.256 1.256 2.0096-6.0288 3.768-2.512 1.7584h-0.2512l-0.7536 0.7536-0.5024 0.2512-1.0048 0.2512-0.2512-0.2512-2.512 0.2512h-1.7584l-0.7536 0.2512-4.5216 0.2512-1.256 7.2848-11.555 3.2656 0.5024 2.7632 0.5024 2.2608 0.5024 3.0144 2.0096 6.5312v1.7584 1.5072l0.2512 1.256v1.5072l2.7632 0.5024 2.7632 0.5024 3.768 1.256 3.5168 2.2608 2.0096 1.5072v0.2512l-2.2608 1.5072-2.0096 0.2512-0.5024 1.5072-11.053 8.0384v0.2512l-1.7584 6.7824v0.5024l-0.2512 0.7536h-0.7536v0.2512l-0.7536-0.2512-0.7536-0.2512-6.0288-1.256-0.7536 3.0144-0.7536 3.0144 0.7536 4.2704 10.802 1.5072 2.0096 6.0288-3.2656 0.5024 1.256 7.536-3.2656 11.555-0.7536 2.2608-3.5168-0.2512-2.7632-0.2512-5.2752-1.7584-1.256-13.314h-0.5024l-1.7584-1.0048-13.314-1.7584 1.5072-6.0288 0.5024-1.5072 0.2512-1.256-3.0144 0.5024-5.024-1.0048 0.2512 2.0096-2.7632-0.2512-5.5264-1.0048-0.2512 0.5024-1.0048 0.2512-3.5168-0.2512h-3.0144v-0.2512h-0.7536v-0.2512l0.2512-1.0048h0.2512l-0.2512-9.5456 0.2512-5.7776-6.0288-0.7536 0.7536-6.0288-3.5168 2.7632v0.2512h-0.5024v1.0048l-2.7632-0.5024 0.2512-0.2512 0.7536-3.2656 2.2608 0.5024v-0.5024l-0.2512-1.7584h-0.2512l-1.0048-5.2752v-0.2512-0.7536l0.2512-1.7584 0.5024-3.0144 0.2512-3.768h0.2512l0.2512-1.256v-0.2512-1.0048l-0.5024-0.5024-0.2512-0.5024 0.2512-0.5024-0.2512-0.5024-0.2512-0.2512-0.2512-0.7536v-0.5024-0.2512l0.2512-0.2512 0.7536-1.0048 0.2512-0.2512-2.512-0.2512 0.2512-3.5168 0.5024 0.2512 0.2512-1.0048h1.7584v0.7536h2.0096v1.7584l3.5168-3.5168h1.0048l1.5072 0.2512 0.2512-0.7536 0.2512-0.2512 1.256-3.2656v-0.2512-1.256-1.0048l-0.5024-2.0096-0.2512-1.256v-1.0048l0.2512-1.0048 0.2512-1.256 0.2512-1.256 0.2512-1.5072 0.5024-0.5024 2.2608-2.0096h0.5024 1.256l1.256 0.2512 0.5024-7.0336 3.5168 0.5024 0.5024-3.768h-0.5024l0.2512-1.7584-4.7728-0.5024 13.062 1.256-0.5024-2.2608v-3.5168l0.5024-6.7824 5.024 0.2512v-0.7536l-0.7536-2.512-0.7536-4.0192-0.5024-2.7632-2.0096-3.0144 19.845-4.0192 0.5024 5.2752 0.5024 3.0144 0.2512 2.7632-6.0288 2.7632 1.7584 4.0192 5.024-2.0096 0.7536 4.7728 5.7776-0.7536v-1.0048l-0.7536-4.2704-0.2512-2.7632 4.0192-0.5024-0.2512-1.7584 2.2608-0.5024v-1.256h-0.5024l-2.0096 0.7536 0.2512 1.0048h-0.7536l-0.2512-1.256-1.5072 0.2512h-1.7584v-0.2512h0.2512 0.2512 0.2512 0.5024l-0.2512-0.2512h0.5024 0.2512 0.2512v-0.2512-0.2512l-0.2512-0.2512v-0.2512-0.2512-0.2512-0.2512-0.2512l-0.2512-0.2512v-0.5024-0.2512-0.2512-0.2512-0.2512l0.2512-0.2512-1.0048-6.28h2.2608l6.7824 0.5024 1.256 4.7728h-0.2512"/>
		<path id="path7895" d="m311.3 348.71-0.7536 8.5408 1.256 0.2512-0.2512 3.0144 4.0192 0.5024h0.7536l1.0048 0.7536 1.256 0.2512h0.5024l3.2656 3.768 0.2512-0.5024h0.5024 0.2512 0.5024 0.5024 0.5024l0.7536 0.2512 0.5024 0.2512 0.5024 0.2512 0.2512 0.2512 0.2512 0.2512v0.7536 0.5024h1.0048 0.5024l0.5024 0.2512h0.5024 0.7536v0.7536l0.2512 0.7536h0.2512 1.0048v0.2512h0.7536l1.256 0.2512 0.2512 0.7536 0.2512 0.5024 0.5024 0.5024 1.0048 2.0096 0.5024 1.0048 0.5024 0.7536 0.7536 0.5024 0.2512 0.7536h0.2512l0.2512 0.5024 1.0048 1.256-0.2512 1.5072v0.5024l-0.2512 0.5024v0.5024 1.0048l-0.2512 1.256 1.5072 0.2512 2.7632 0.2512 0.2512 0.5024 0.2512 0.5024h0.2512l0.7536 1.0048 0.7536 0.7536 0.7536 1.256 0.2512 0.2512 0.5024 0.5024 0.7536 0.7536h1.256v0.2512l1.7584 0.2512h1.5072l-2.2608 4.5216 2.7632 1.5072-0.2512 0.7536v1.5072l-0.2512 0.7536-0.2512 2.0096 1.5072 0.2512-0.2512-1.0048 0.5024 0.2512 1.7584 0.7536 1.0048 0.2512h0.2512l1.256 0.5024 1.0048 0.5024 0.2512 0.2512 0.5024 0.2512 0.7536 0.2512 0.5024 0.2512h0.2512l0.5024 0.2512v-7.0336l0.7536 0.5024 4.2704-7.2848h1.5072v0.5024l-0.2512 1.0048 0.2512 1.5072v0.5024 0.7536 0.7536 2.0096l0.7536 0.2512 3.5168 1.7584 0.2512 1.7584 0.2512 1.0048 0.2512 1.5072v1.0048l0.2512 1.0048 0.2512 1.0048v0.2512l-0.2512 0.2512 0.2512 0.7536-1.0048 0.2512-1.256 0.2512v0.7536 0.5024l0.2512 0.7536v0.7536 1.256 0.2512 0.7536 0.5024l0.2512 1.0048 0.2512 0.5024 0.2512 0.5024 0.5024 0.5024 0.2512 0.5024 0.5024 0.7536 0.2512 0.7536 0.2512 0.7536 0.2512 0.7536v0.7536l0.2512 1.0048-0.2512 0.5024v1.0048l-0.2512 0.7536-0.5024-0.2512-2.2608-0.2512-2.2608-0.2512h-0.2512l-1.256-0.2512h-0.2512-0.2512l-2.512-0.2512-0.2512-0.2512h-1.5072l-1.5072-0.2512v-0.2512l-1.256-1.7584-0.2512-0.2512-0.7536-0.5024-0.7536-0.7536-0.2512-0.2512-1.0048-0.7536v-0.5024-0.7536-1.0048l-0.2512 0.2512v-0.2512h-0.7536-0.5024v-1.256l-1.0048 0.2512h-1.0048-1.256-1.5072-1.0048-1.0048l-2.7632 0.5024v0.7536l0.2512 1.7584v0.7536l-0.2512 0.5024v0.5024l2.0096 1.7584h-0.5024-0.7536-1.256-0.7536v-0.2512h-1.256-0.2512-0.5024-0.7536l-0.2512-0.2512 0.2512-3.0144h-3.0144l-0.2512 3.0144h1.256l0.5024 2.512-6.7824-0.7536-2.0096-0.2512-2.512-0.5024h-1.256l-3.768-0.7536-0.7536 4.0192v1.0048l-0.2512 3.0144-0.7536 3.768-0.2512 1.5072-1.0048-0.2512v0.5024l-1.5072-0.2512 0.2512-2.7632-5.5264-0.7536h-1.256v-0.5024l0.2512-2.2608 0.5024-4.2704-2.512-0.2512 0.7536-4.2704 0.2512-2.512 0.5024-2.2608 0.2512-2.2608h-1.0048l-2.512-0.2512h-0.5024l-2.7632-0.2512-0.5024 2.7632-0.2512 1.0048-0.5024 3.2656-0.2512 1.256-0.5024 2.512h-0.2512-1.5072l-0.7536-0.2512h-0.5024-1.0048l-1.256-0.2512-4.7728-0.5024v-4.7728l-1.5072-0.2512h-0.7536-0.7536l-1.256-0.2512-1.7584-0.2512v0.2512l-0.2512 1.5072-0.2512 1.7584v0.2512 1.0048 0.2512 0.5024l-0.2512 1.0048h-0.5024l-1.7584-0.2512-3.0144-0.5024v0.7536l-0.2512 1.5072v1.256l-0.2512 1.7584h-0.2512l-1.256-0.2512h-0.2512l-1.256-0.2512h-0.5024l-1.7584-0.5024-2.0096-0.2512-1.256-0.2512h-0.2512l-1.7584-0.2512-1.256-0.2512v-1.0048-1.256-1.5072l0.2512-1.7584 0.7536-3.768v-0.2512l0.2512-2.0096 0.2512-2.2608v-0.5024-2.0096l0.2512-1.0048v-1.7584-1.0048-2.7632l0.2512-5.2752h2.512 1.5072l2.2608-0.2512h2.512 1.7584 0.5024v-4.5216-0.2512-2.7632-0.2512l2.7632-0.2512 0.2512-1.256v-1.5072l0.2512-0.7536v-1.0048l0.2512-1.5072 0.2512-1.256v-1.0048l0.2512-1.5072v-1.0048l0.2512-0.7536v-1.0048l0.2512-1.5072v-0.5024-0.7536l-1.7584-0.2512h-1.0048l-1.7584-0.2512v0.2512 0.7536l-3.0144-0.7536-4.0192-1.0048 0.7536-2.2608 0.2512-1.256 0.2512-0.7536 0.5024-1.0048 0.5024-0.7536 1.0048-1.7584v-0.2512l-1.0048-0.5024v0.2512h-0.2512l-1.0048-0.5024-0.5024-0.2512-0.2512-0.2512h-0.2512l-0.2512-0.2512-0.2512-0.2512h-0.2512-0.2512l-0.2512-0.2512-0.2512-0.2512-2.2608 2.7632 0.2512 0.2512-0.5024 1.256-3.2656-1.256-4.0192-7.2848 0.7536-6.5312 0.2512-0.7536v-0.7536l0.5024 0.2512 2.7632 0.5024 0.2512-2.2608v-1.256h0.2512 4.2704 0.7536 0.7536l1.0048-0.2512 2.512 0.5024h2.0096l1.0048 0.2512 1.0048 0.7536 2.2608 0.5024 0.7536 0.2512h2.2608 1.5072l1.7584 0.2512h2.2608 2.0096 1.7584 14.067"/>
		<path id="path7898" d="m636.85 333.39-0.7536 7.7872-0.2512 2.2608v1.5072l-0.2512 1.7584-0.7536 4.5216-1.0048 5.2752v0.7536l-0.2512 0.7536-0.2512 0.5024-0.2512 1.256-0.2512 1.0048-0.7536 0.7536 0.7536 0.2512h1.256l-2.512 15.072-5.7776 1.0048-5.5264 0.7536-0.2512 3.2656h-1.5072-0.5024l-3.768-0.2512-1.0048 0.2512-0.7536-0.2512-2.512-1.0048h-1.5072-1.256l-2.0096-0.7536-1.256-0.2512-0.7536 1.0048h-1.7584l-1.256-0.5024-2.0096-0.5024-2.7632-0.2512-4.5216 1.0048-1.256 13.314 18.086 0.2512-0.5024 2.0096v0.7536l-0.2512 2.0096-0.5024 4.0192-2.0096 2.2608-2.2608 3.2656-8.792 10.802-3.768-4.5216-2.7632-1.0048-2.2608-0.5024-0.2512 1.256-1.5072 10.802-25.12-2.7632-1.7584 7.7872v0.7536l-0.2512 0.7536v0.7536l-1.256-0.5024h-1.0048l-2.0096-1.5072-3.768-1.5072-1.7584-1.256-6.28 0.2512-0.7536-0.2512h-0.5024l-1.256-0.2512-0.7536-0.7536-0.7536-3.0144-1.0048-0.5024-3.5168-1.7584-1.0048-0.5024-2.0096-0.5024-1.5072-0.2512h-0.7536l-1.0048-0.5024-0.7536 0.2512-2.2608-0.5024-0.7536-0.5024h-0.5024v-0.5024l-0.7536-0.2512h-2.2608l-1.256-0.2512-0.7536-0.2512-2.512-0.5024-1.256 1.0048-0.7536 0.5024-0.5024 0.5024-0.7536 0.2512-1.0048 0.5024-3.5168 1.256h-0.5024l-1.5072-0.2512-2.0096 0.5024-2.0096-0.2512 0.2512-2.0096 0.2512-0.7536 0.5024-0.7536 2.2608-2.0096 0.7536-2.512 0.5024-1.7584-3.5168-1.0048-3.5168-1.0048 1.256-6.5312 1.7584-5.7776-6.5312-0.7536-4.2704-0.5024-0.2512 1.256-1.0048-0.5024-1.5072-0.2512-1.256 2.0096-0.5024 0.5024-0.7536-0.5024-1.0048-0.5024-1.7584-0.2512-4.0192-1.256h-1.256l-1.256-0.5024h-1.0048l-1.0048-0.5024-2.512-0.5024-2.0096 0.2512-2.7632-0.7536-1.5072-1.0048-1.0048-0.5024-0.5024 0.2512-1.5072-0.2512h-0.7536-1.5072-0.7536l-0.5024-0.2512 1.0048 2.512-0.2512 0.5024v2.512l-0.2512 1.5072-0.5024 1.256-1.5072 0.2512-1.0048-0.5024h-1.0048l-1.0048-0.5024h-0.5024l-0.5024-0.7536-0.5024-0.2512-0.2512-0.2512h-1.5072l-0.5024 0.2512v0.5024l-1.0048 1.7584-0.7536-0.2512h-0.2512l-0.7536 0.2512-1.256 0.2512-1.7584 0.5024-2.512 1.256-1.5072 0.2512-1.0048-1.5072-1.7584-0.2512-4.0192 1.256 0.5024 1.5072-3.0144 1.0048-0.5024-1.5072-2.512 0.7536-1.0048 0.2512-5.5264 1.7584-1.7584 0.5024-0.2512 0.2512-2.7632 0.5024-0.2512 0.2512h-0.5024l-1.256 0.7536h-0.7536l3.2656-11.555-1.256-7.536 3.2656-0.5024-2.0096-6.0288-10.802-1.5072-0.7536-4.2704 0.7536-3.0144 0.7536-3.0144 6.0288 1.256 0.7536 0.2512 0.7536 0.2512v-0.2512h0.7536l0.2512-0.7536v-0.5024l1.7584-6.7824v-0.2512l11.053-8.0384 0.5024-1.5072 2.0096-0.2512 2.2608-1.5072v-0.2512l-2.0096-1.5072v-1.0048l2.2608-23.613 2.7632 0.2512 2.2608 0.2512 3.0144 0.2512h1.5072l4.2704 6.28 1.256 4.5216v1.7584l8.0384 1.0048h0.2512 0.2512l3.5168 0.5024 3.768 0.5024v-0.7536-1.7584l0.2512-1.5072 1.0048-2.0096 0.5024-2.0096 3.768-5.024 0.5024-0.7536 2.0096-2.7632 1.5072 0.5024h0.5024l1.256 0.7536 2.0096 1.0048 1.256-0.7536 1.5072-0.2512 3.0144 0.5024h3.2656l1.0048 0.2512h0.2512l0.7536 0.2512 2.2608 0.7536 2.0096 0.2512h0.2512 1.5072 0.5024 0.5024l2.512 0.2512 1.0048-0.2512 3.0144-0.2512h0.7536l1.256-0.2512 0.5024 0.2512 0.5024-0.2512 2.512 0.2512 2.0096 0.2512 1.0048-0.2512 2.2608 0.2512 0.5024 0.2512h0.5024l0.2512-0.2512 2.512 0.5024h0.5024l1.5072-0.2512-0.2512 2.7632-0.7536 3.0144-0.5024 3.2656-0.2512 2.512-0.5024 3.2656-0.2512 1.7584-0.5024 3.768-0.7536 6.7824-3.0144-0.2512h-0.2512l-0.2512 0.2512-0.5024-0.2512-1.5072-2.2608-4.7728-7.0336v-0.2512l-2.0096-2.7632-2.2608-3.2656h-0.7536l-3.768-0.5024h-1.7584l-2.0096-0.2512h-1.7584v1.5072l-0.2512 1.5072h-0.2512l-2.7632-0.2512h-0.2512l-3.2656-0.2512-1.5072-0.2512-2.512-0.5024-1.0048 1.0048-2.0096 1.5072-0.7536 0.7536-0.2512 0.7536-1.0048 1.256-0.5024 4.0192-0.2512 1.7584-0.2512 1.7584v1.256l-1.0048 2.512-0.2512 1.0048-2.2608 5.2752-1.256 3.0144 0.2512 0.2512h0.2512l0.2512 0.2512h1.256l1.0048 0.2512 1.0048 0.2512 0.7536 0.2512 2.0096 0.5024 1.256 0.2512 0.5024-1.256 0.5024-1.5072h0.5024l1.5072 0.2512h2.0096l1.5072 0.2512v-4.7728l0.2512-2.7632h4.0192v-2.0096l6.7824 0.7536-0.2512 4.5216h0.7536v1.5072l-0.2512 0.5024v1.5072l-0.2512 1.7584v1.0048l1.5072-0.7536 2.2608-1.256 1.5072-0.7536h0.5024 0.2512l1.5072-0.2512h0.5024 1.256l1.256-0.2512 0.7536-0.2512h0.5024l1.7584-0.2512 2.2608-0.2512h0.2512l0.2512-0.2512 2.2608-0.5024 1.0048-0.2512 2.0096-0.5024v0.7536l0.7536 0.5024 0.5024 0.2512 0.5024 0.2512 0.2512 0.7536 1.5072 1.0048 0.2512 0.2512 0.7536 0.5024 0.7536-0.2512h0.2512l4.7728 0.2512h3.5168l5.024 0.2512 11.555 0.5024 12.56 0.5024 1.7584-15.574h2.7632l3.2656-0.2512 6.7824-0.7536 5.2752-0.2512 2.2608-0.2512 0.5024-4.2704 2.512 0.2512 10.048 1.0048h4.0192 1.7584l4.2704-0.5024 1.0048 0.2512 3.0144-9.5456 0.2512-1.0048 0.5024-2.0096 1.0048-2.7632 1.0048-2.2608 2.7632 2.512 2.512 1.7584h0.7536l0.5024-0.2512h1.0048l2.2608-0.7536 1.5072-0.7536 2.2608-0.7536h1.256l2.0096-0.2512 6.7824 0.2512 3.5168 0.2512"/>
		<path id="path7916" d="m326.12 533.59-1.0048 5.2752-0.5024 2.7632 1.0048-0.2512h1.0048l1.5072 0.7536 2.0096 1.0048 2.0096-1.256h0.2512l2.2608-0.5024h0.2512v0.5024l1.256 4.7728-1.256 4.5216-0.7536 2.2608-4.5216 7.7872v0.7536 0.2512 2.512 1.0048 0.2512 0.2512l-0.5024 1.5072h-0.7536-1.0048l-0.2512 3.2656h0.7536l1.7584 0.7536 0.7536 0.2512v2.7632h1.0048l3.0144 0.2512 4.5216 0.7536h1.0048l5.7776 10.55 1.5072 3.0144 0.2512 0.7536 0.2512 0.2512v1.5072l-0.2512 1.5072 3.2656 5.5264 1.0048 4.0192 0.5024 1.7584 1.0048 1.256 0.2512 0.7536 0.5024 1.0048 0.2512 1.0048 1.5072 0.2512 2.512 1.5072v1.5072 0.2512 5.5264l-1.0048 3.768 1.0048 0.2512 1.7584 1.0048 2.7632-0.2512 0.2512 0.2512 0.5024 1.256-1.256 2.0096-0.7536 2.2608-2.2608 0.2512-2.2608-0.2512-3.0144-0.2512-2.0096 0.2512-2.0096 0.2512-2.0096-0.2512h-1.0048l-4.0192-3.5168-0.5024-1.5072-0.7536 0.5024h-1.5072l-1.5072 0.5024-1.256 0.7536h-1.256l-0.2512-0.2512-0.5024-0.5024-0.5024-0.5024-2.7632-5.7776 0.5024-7.0336-2.7632-0.2512-0.7536-1.256-3.2656-1.256-6.28-0.7536v-0.5024-0.5024l-10.299-1.0048v-0.2512l0.2512-1.0048 0.2512-1.7584-1.0048-0.2512h-0.5024-0.7536l-1.7584-0.2512-1.0048-0.2512-0.5024 0.2512-0.2512-0.5024-0.2512-0.5024-1.5072-0.2512v-0.2512h-0.2512l-0.2512 0.2512-0.5024 1.0048-0.2512 0.5024v0.7536l-1.5072-1.7584h-0.5024l-2.0096 0.5024h-0.7536l-2.2608-0.5024-1.5072-0.5024-0.2512-0.5024-0.5024-1.256-2.512-1.5072-0.5024-0.2512-0.7536-0.2512h-0.5024l-0.2512-2.7632-3.768-0.7536-1.7584-0.5024v0.7536 0.5024l0.2512 1.256-0.2512 2.512 0.5024 0.7536v0.2512l0.7536 2.2608h-1.0048l-2.0096-0.2512h-0.7536l-1.256-0.2512h-0.2512l-2.512-1.0048v-2.0096l-0.2512-0.2512v-0.5024-0.5024l0.2512-1.0048 0.2512-1.0048v-1.0048-0.5024-0.2512h-0.5024l-0.7536-0.2512h-0.7536-0.5024l-1.7584-0.2512v-0.7536-1.0048l0.5024-1.0048 0.2512-0.5024h1.7584l0.5024 0.2512v-0.2512-0.7536l0.2512-0.2512 0.7536-1.5072 0.2512-2.2608-2.7632-0.7536-0.5024-2.2608v-4.0192l-1.0048 0.2512-1.5072 0.7536h-2.0096l-1.7584 0.2512-1.0048-0.5024h-1.7584l0.2512 0.2512 0.2512 2.0096-1.256-0.2512h-0.7536-0.2512l-1.0048 0.2512 0.2512 1.256v1.5072l0.7536 0.2512 2.0096-0.2512 2.2608-0.5024h3.0144l1.7584 0.2512-0.2512 1.5072-0.2512 1.5072-1.256-0.2512-1.0048 0.2512h-1.256l0.2512 1.256v1.256h-2.512l-0.5024-2.2608h-1.0048-1.0048-0.7536l-0.5024 0.2512h-0.5024l-0.2512 0.2512-0.7536-0.2512-0.2512 0.2512h-0.5024l-2.2608-1.0048-0.2512-0.2512 0.2512-1.7584v-2.7632h0.2512v-1.256h-1.7584l-0.5024-0.5024v-0.5024l0.2512-2.0096 0.2512-1.256-3.0144-0.2512-0.7536 1.5072-0.5024 0.5024-1.5072-0.5024-0.7536-0.5024h-0.2512l-1.5072-0.7536v0.5024 0.2512l-0.2512 1.256-0.7536 0.2512-2.0096 0.2512-0.5024-0.5024-0.2512-0.5024-0.5024-0.2512-0.5024-0.5024-3.768 1.7584-1.0048-1.0048h-0.5024l-0.5024 3.5168-2.512-0.2512-1.0048-0.2512h-0.7536l-0.7536-0.2512-0.7536-0.2512 0.2512-2.0096h-0.5024l0.2512-1.0048h0.7536l0.2512-1.7584 0.2512-1.0048h0.5024l0.5024-1.7584h-0.5024l0.5024-2.7632 1.5072 0.7536 3.2656 1.7584 2.0096 1.5072 1.256 0.2512 0.7536-0.2512 0.2512-1.0048 3.2656 0.2512 0.2512 0.5024h1.256v-0.7536-0.5024l-0.2512-0.5024v-0.2512l-1.0048-0.7536-1.5072-0.2512-0.7536-0.7536-1.0048-1.0048-0.2512-1.256v-0.2512-0.7536l-0.2512-1.0048h-1.7584l-0.2512 0.2512h-1.7584v1.0048 1.5072h-1.0048-3.2656l-1.7584-1.0048v-2.0096l3.2656 0.5024 0.2512-2.512h0.2512l0.7536 0.2512v-2.0096l0.2512-0.7536v-0.2512h-1.5072l0.2512-2.0096 1.256-1.256-2.2608 0.2512-0.5024-1.5072 0.2512-1.7584 0.2512-0.7536-2.512 0.2512v-2.0096l0.2512-0.7536v-1.0048-0.2512l-0.2512 0.5024-1.0048 0.5024-1.256 0.2512-0.7536-2.2608-0.7536-1.7584 0.2512-1.7584-1.5072-0.2512v-0.7536h-0.2512l-3.5168-0.2512-0.2512 1.7584-5.024-2.2608h1.256l0.5024-1.0048v-0.7536l0.2512-2.2608 1.0048 0.7536 1.5072 0.2512 0.5024 0.2512 2.512 1.256 0.2512-1.256 1.256 1.256 1.5072 0.2512 0.5024-1.5072 0.2512-1.7584v-0.2512-2.0096l0.2512-1.5072 0.2512-1.5072 0.2512-1.0048 1.0048 0.5024 1.5072 0.2512 2.512 1.0048-0.2512 1.5072-0.2512 2.2608-0.5024 2.512-0.5024 1.7584 0.7536 0.2512 3.2656 1.256 0.5024 0.2512 1.0048 0.2512 0.2512-4.0192-0.2512-0.2512h-0.2512v-0.5024-1.0048-0.5024l-1.5072-0.2512 0.5024-1.0048 0.2512-1.5072v-2.0096l0.2512-0.5024 0.2512-1.5072-0.5024-1.0048h0.2512l8.0384 0.7536-0.2512-0.5024-0.2512-0.7536v-0.7536l2.512 0.2512v-0.5024l0.2512-0.5024 7.2848 0.7536 0.7536 0.2512h-0.2512v0.2512l-0.2512 1.0048h1.0048l2.0096-0.2512 0.2512-1.5072 0.7536 0.5024 1.0048 0.7536 0.5024 0.2512 1.0048 0.5024 1.0048 0.2512 0.5024 0.2512 0.7536 0.2512h0.7536 0.5024 1.256l0.5024-0.2512 1.5072-0.2512 1.256 0.2512 1.256 0.5024-0.2512 3.768 3.5168 0.5024h1.5072l0.2512-2.2608v-2.512l1.256 0.2512 5.7776 1.0048h0.7536l1.0048 0.7536-0.7536 3.0144-1.256 2.7632 19.342 0.2512 0.5024-3.5168h-2.2608l-1.5072 0.2512-0.2512-1.5072-0.2512-1.256-0.2512-4.7728 2.7632 0.7536 3.5168 1.7584 2.512 0.7536 2.2608 0.2512v1.256h4.5216l1.256-0.5024 3.0144-1.256 1.5072-0.5024 2.512-1.256 1.0048-0.2512 1.0048 2.512 0.2512 0.5024 1.7584 0.2512 0.2512 1.0048v0.7536"/>
		<path id="path7943" d="m453.73 489.89v2.512 0.7536l0.2512 2.2608-0.2512 1.0048v1.7584h1.5072 1.256l1.256 0.2512h1.0048l0.7536 0.2512h1.0048l2.7632 0.2512 2.0096-0.2512 0.2512 0.7536-0.2512 0.7536v0.7536 0.5024l0.7536 0.2512 0.5024 0.2512 0.2512 0.5024 0.2512 0.5024 0.5024 0.7536v0.5024l0.5024 0.2512 0.2512 0.5024 0.5024 0.5024 0.2512 0.7536h0.7536l0.7536-0.2512 0.5024 0.2512 0.5024 0.2512 0.2512 0.2512 0.7536 0.5024 0.5024 0.2512 0.2512 0.2512 0.5024 0.7536 0.7536 0.5024 0.7536 0.5024 0.5024 0.2512 1.0048 0.5024 1.0048 0.2512 1.0048 0.2512 0.5024 0.2512 1.5072 0.7536 0.7536 0.5024 0.7536 0.5024 0.7536 0.2512 2.2608 1.7584 3.2656 2.7632 0.2512 0.2512-2.7632 2.512-1.5072 1.7584-2.0096 3.0144-0.7536 0.5024-0.2512 0.5024-1.256 4.2704-1.5072-0.5024-1.256-0.2512 0.5024 3.0144 0.2512 1.5072 0.5024 1.256 0.7536 2.7632 0.7536 1.0048-0.5024 1.256-0.7536 3.0144v1.7584l-0.5024 2.2608-0.5024 2.512-0.7536 1.256 3.0144 0.2512 1.256 0.2512 3.5168 1.0048 2.512 1.256 0.5024-3.5168 1.256-2.7632 1.5072-1.256 1.256-1.0048 1.5072-1.5072 1.7584-1.7584 1.7584-1.0048 2.0096-1.7584 3.0144-2.512 1.5072-3.2656 3.2656-3.0144 0.5024-1.0048 0.2512-2.0096-0.2512-3.768v-1.7584l1.256-0.5024 3.5168-0.7536h1.256l3.0144 0.2512 0.7536 0.2512-0.2512 9.7968v5.5264l3.2656-0.7536 6.28-1.256v0.2512l-0.2512 1.0048-0.2512 1.0048v0.5024l-0.5024 1.0048v0.5024l-0.5024 1.0048v0.2512 0.5024l-0.5024 1.256-0.2512 0.7536v0.2512l-0.5024 1.0048v0.2512l-0.2512 0.5024-0.2512 0.7536h-0.7536-1.256-2.2608l-0.2512 0.7536-0.2512 2.0096v0.5024l-0.2512 2.0096-0.2512 1.0048-0.2512 2.0096-0.2512 1.5072v0.5024l-0.2512 0.7536v0.2512 0.7536l-0.2512 0.5024v0.5024 0.2512 0.2512 0.2512l-0.2512 0.2512v0.7536l-0.2512 1.256v1.0048l-0.2512 0.7536-0.2512 1.5072v0.5024l-0.2512 1.5072v0.5024 1.0048l-0.2512 0.7536-0.2512 1.256v0.2512l-0.2512 1.7584v0.7536l1.0048 1.5072 0.7536 1.0048v0.2512l0.5024-0.2512 0.2512-0.2512h1.0048 0.2512l0.5024-0.2512h0.5024 0.5024 1.0048 0.5024 0.5024l0.7536 0.2512 1.256 0.2512 1.0048 0.2512h0.7536 0.5024 1.0048 1.256 0.2512l0.5024 0.2512 0.7536 0.5024 0.7536 0.5024v0.2512l1.0048 0.5024 0.5024 0.2512 0.5024 0.2512 1.256 0.7536 0.7536 0.2512 1.256 0.2512 0.2512 0.2512 1.256 0.2512v-1.256l0.5024-1.7584v-1.0048l0.2512-1.7584 0.2512-0.7536v-0.2512-0.2512l0.2512-1.256v-0.5024l0.5024-2.2608 0.2512-1.5072 0.2512-1.5072v-0.5024-0.2512l-0.5024-1.7584 1.0048-0.7536v-1.0048h0.7536 0.5024l0.7536 0.2512h1.5072 0.7536l0.2512 0.2512h0.5024 1.256 0.2512l1.256 0.2512h1.0048l1.0048 0.2512h0.2512 1.5072l1.0048 0.2512h0.7536 0.2512l1.7584 0.2512 1.256 0.2512h1.7584l0.7536 0.2512h1.0048 1.0048l4.5216 0.5024 3.2656 0.2512-1.0048 2.512-0.2512 0.7536 0.5024 3.768v0.2512l0.2512 0.5024v0.2512l3.2656 1.0048-2.2608 3.768h0.7536 1.256 0.7536l0.5024 0.2512 1.0048 0.2512 1.0048 0.2512 1.0048 0.2512h0.2512l-0.2512 0.7536v0.5024l-0.5024 1.0048v0.7536h-0.2512l-0.2512 1.0048-0.2512 0.7536-0.5024 0.7536-0.5024 1.0048v0.5024l-0.2512 0.7536-0.5024 1.0048h-0.5024-0.7536-0.7536l-1.0048 0.2512v0.7536l0.2512 0.2512v1.0048l-0.2512 0.5024-0.2512 0.2512-0.2512 0.5024h-0.2512l-0.2512 0.5024h0.2512 0.7536 1.256l1.7584 0.2512h0.5024 1.256l2.0096 0.2512 1.5072 0.2512h0.7536 1.256l1.256 0.2512h1.7584l1.256 0.2512h0.2512 1.5072l1.256 0.2512h1.0048l1.7584 0.2512h0.5024 1.0048 0.5024v-0.7536-0.5024h0.2512l1.256 0.2512h1.0048l1.256 0.2512h0.7536 1.256 0.5024l0.7536 0.2512h0.7536 0.5024 0.7536l-0.2512 5.5264-0.2512 11.806-2.7632-1.0048-1.256-0.2512-1.0048-0.2512-0.5024-0.2512h-0.5024l-0.5024-0.2512-0.5024-0.2512-1.0048-0.5024h-0.2512l-0.7536-0.2512-0.5024-0.2512-0.5024-0.2512-1.5072-0.5024-1.5072-0.2512-1.0048-0.2512-1.0048-0.2512h-0.5024l-0.5024-0.2512-0.5024-0.2512h-0.2512l-0.7536-0.5024-1.256-0.7536-0.5024-0.2512-1.5072-0.7536-0.7536-0.5024-0.7536 6.5312v0.5024l-0.2512 3.768v2.512l-0.2512 0.7536-0.5024 2.2608v1.256h3.0144 2.512l4.2704-0.5024h0.5024v0.5024l-0.7536 2.0096-4.5216 4.7728-43.206 0.5024 0.2512 0.2512 0.2512 0.5024 0.5024 0.2512 0.2512 0.2512v0.2512l0.2512 0.2512 0.5024 0.2512 0.2512 0.5024 0.5024 0.2512v0.2512l0.5024 0.2512 0.2512 0.2512 0.7536 0.7536 0.2512 0.2512 0.5024 0.2512 0.5024 0.2512v0.2512l0.2512 0.2512v0.2512 0.5024l0.2512 1.0048v0.5024 0.5024 0.5024l0.2512 0.5024 0.2512 0.5024v0.5024l-0.2512 0.7536v0.7536l-0.2512 1.0048-0.2512 0.7536v0.5024 0.2512l-0.2512 1.0048v0.2512l-0.2512 0.2512v0.5024l-0.5024 0.7536-0.5024 0.7536-0.2512 0.7536-0.2512 0.7536-0.2512 0.5024-0.2512 0.5024-0.5024 1.0048-0.2512 0.2512v0.2512l-0.2512 0.5024-0.2512 0.7536-0.5024 0.5024-0.2512 0.7536-0.2512-0.2512h-0.5024l-1.0048-0.5024-0.5024-0.2512-1.256-0.5024h-1.0048-0.2512-0.2512l-0.5024-0.2512-0.5024-0.5024h-0.7536l-0.2512-0.2512-0.2512-0.2512v-0.2512l-1.256-0.5024h-1.0048l-0.5024-0.5024-0.5024-0.2512-0.2512-0.2512-0.2512 0.2512-0.5024 0.2512v0.2512l-8.2896 8.5408 1.7584 2.512 1.256 2.0096 0.5024 1.256 0.7536 1.256 1.256 1.0048 2.0096 2.2608 1.5072 2.512 1.5072 1.7584 0.7536 0.7536 0.2512 0.2512-0.2512 1.256-0.7536 2.7632-0.5024 2.2608v0.5024l-0.5024 1.256-1.0048 2.0096-1.256 2.7632-1.0048 1.5072-1.5072 4.2704h-0.5024-0.7536-0.7536-1.256l-0.2512-2.2608-0.7536-0.2512-1.5072 0.2512 1.5072-4.5216-3.768-7.7872-1.7584-3.768-11.806-4.2704v-2.2608-4.2704l-3.768-0.7536-6.5312-1.5072-4.7728-1.256 1.256-4.0192 3.0144-9.0432-0.5024-0.5024-0.5024-2.0096-0.7536-3.0144-0.5024-1.256-0.5024-1.5072-1.256-2.2608-0.2512-0.7536h0.7536 0.2512 0.2512 0.5024l0.5024-0.2512h0.2512l0.5024-0.2512h0.2512l0.7536-0.2512h0.5024l0.2512-1.0048 0.2512-0.7536v-0.2512l0.2512-0.5024 0.2512-1.5072 0.2512-0.5024 0.2512-1.0048 0.2512-0.7536v-0.2512l0.2512-1.0048 0.2512-0.2512 0.2512-0.5024v-0.5024-0.2512l0.2512-0.5024v-0.5024l0.2512-1.256v-0.7536l0.2512-0.7536v-0.5024-0.5024-0.7536-0.7536-0.5024-0.2512-0.2512l0.2512-0.5024v-0.2512l0.2512-0.7536 0.2512-0.5024 0.2512-0.7536 0.2512-1.0048v-0.5024-0.5024-0.5024l-0.7536-0.2512-0.2512-0.2512-1.256-0.2512-1.0048-0.2512-0.2512 0.7536-0.2512 0.7536v0.7536l-0.2512 0.5024v0.7536 0.5024 0.2512l-0.2512 0.5024 0.2512 0.7536v0.5024l0.2512 0.7536v0.2512l-0.2512 0.5024v0.5024l-0.2512 0.2512-0.2512 1.256-0.7536-0.2512-1.0048-0.5024-1.5072-0.7536-1.0048-0.2512-0.7536-0.2512-0.7536-0.2512h-0.5024v-0.7536l-0.2512-0.5024v-0.5024l0.2512-1.0048v-0.7536-1.0048l0.2512-1.0048 0.5024-1.256 0.2512-0.7536v-0.5024-0.5024l0.2512-0.2512v-0.7536-0.5024l0.2512-0.7536v-0.2512-0.7536-1.0048-1.256l0.2512-0.5024v-1.0048l-0.5024-0.2512h-0.5024-0.5024-0.7536-0.2512-0.5024l0.2512-1.256v-0.7536-0.5024-0.5024-0.5024l0.2512-1.0048v-0.7536l0.2512-0.5024v-0.5024l0.2512-0.2512v-0.2512l0.2512-0.5024 0.7536-4.0192 0.7536 0.2512 1.256 0.5024 0.5024 0.2512h0.7536l0.5024 0.2512h1.0048 0.5024 0.5024 0.5024l3.2656 0.7536 2.512-2.7632 2.0096-2.2608 0.7536-0.5024 1.0048-1.0048 1.7584-1.7584 2.7632-2.2608 1.256-1.0048 2.2608-2.0096-2.512-0.2512-1.256-0.5024h-0.5024l-1.5072-0.2512h-0.2512l-1.5072-0.5024h-1.0048l-0.7536-0.2512-0.7536-0.2512h-0.7536l-0.7536-0.2512-0.7536-0.2512h-0.5024-0.2512l-1.5072 0.2512-0.7536-0.5024-0.7536-0.2512-0.7536-0.5024-1.7584-2.2608-0.7536-0.7536-0.7536-1.0048-1.0048-1.0048-0.7536-0.2512-1.5072-0.2512-2.2608-0.2512-1.256-0.2512h-0.2512l-1.5072 2.7632-0.2512 1.256-0.2512 2.0096-1.5072 3.768h-0.2512l-1.7584-0.7536-1.0048-0.5024-1.256-0.2512-3.5168-1.5072h-0.2512l-0.2512-0.2512 0.2512-1.0048 0.5024-1.5072v-0.5024l-1.0048-0.5024-2.0096-0.7536-0.5024-0.2512-2.2608-0.7536-0.5024-0.2512-0.7536-0.7536-0.2512-0.2512-1.5072-1.256-1.5072-1.5072-0.5024-0.7536-0.7536-0.7536-1.256-1.256-0.7536-0.7536-1.0048-1.0048-3.0144-2.7632-0.2512-0.5024-1.5072-1.256-0.5024-0.5024-0.5024-0.7536-0.5024-0.5024-1.0048-1.0048-0.7536-0.7536-0.5024-0.5024-3.0144-3.0144-0.5024-0.5024-1.0048-0.7536-0.5024-0.7536-1.0048-1.0048-1.256-1.0048-0.2512-0.5024-0.2512 0.5024v1.256l-0.2512 1.0048-0.2512 0.7536-0.2512 0.7536-0.2512 1.7584-0.2512 0.7536v0.5024l-0.7536-0.2512-0.7536 0.5024-2.7632 1.256-2.0096 0.5024-1.0048-1.256-2.0096-4.5216-9.7968-1.5072-6.5312-0.7536-3.5168-5.024-7.7872-0.7536 6.0288 9.2944-3.0144-0.7536-0.2512 3.2656-6.0288-0.5024 0.2512-3.2656 0.5024-3.0144 0.2512-6.28-2.512-0.2512v-3.0144h1.0048 0.5024l2.2608 3.0144 0.7536 0.2512v-0.5024l1.5072-3.5168 1.256-2.7632 1.256-2.512 0.2512-2.512h-2.2608l-3.2656-0.2512-2.512-0.2512-1.0048 0.2512-2.7632 0.5024h-2.512l-1.256 0.2512-0.7536-0.7536-0.5024-1.0048-0.5024-0.2512-0.5024-2.0096-1.7584-1.7584h-3.0144l-1.7584 0.2512-1.256 0.2512-3.0144 2.2608-1.0048-5.024-5.5264-3.768-2.512-1.5072h-0.5024l-1.0048 1.5072-1.256 0.2512h-2.2608-8.792l-2.2608-0.2512v-2.0096l-0.5024-4.7728-0.5024-2.512 0.2512-1.5072v-0.7536l0.7536-2.512 0.7536-1.256 0.5024-0.5024 0.2512-0.2512 0.5024-1.5072 1.5072-3.5168 3.2656 1.0048 7.0336 2.512 2.512 1.0048 4.7728 1.5072 3.2656-2.7632 2.2608-1.5072v-0.2512-0.5024l-0.5024-1.5072 0.2512-0.7536 5.024 0.5024 0.2512-0.5024v-0.7536l0.2512-0.2512v-2.2608h-0.2512l0.2512-1.5072h-0.5024v-0.5024l0.2512-0.5024 1.0048 0.2512h0.5024l2.512 0.2512 3.0144 0.2512h0.2512l3.0144 0.2512 2.0096-0.7536 2.2608 6.7824-5.2752-0.5024h-1.5072l-0.5024 1.256-0.7536 5.2752 1.5072 0.2512 0.7536-0.2512 1.5072-0.2512h0.2512l2.512-1.7584h0.2512l0.5024-0.5024h0.7536l-0.2512-1.5072h0.7536 2.0096 3.768 2.2608v-1.7584l1.7584-1.5072 11.555-3.0144v1.5072l0.7536 0.2512 0.5024 0.5024 0.7536 0.5024 0.5024 1.0048 0.7536 1.0048 0.7536 0.7536 1.0048 1.256 0.7536 0.7536 1.5072 0.2512 2.0096-12.058 4.0192 0.2512 1.0048 0.2512 3.768 1.5072 0.7536 0.5024 2.7632 1.0048 0.7536-2.0096v-1.0048-0.7536-0.5024l1.0048-0.2512 0.5024 0.2512 2.2608 0.7536 0.5024 0.2512 0.5024 0.2512 2.7632 2.2608 0.7536 0.5024"/>
		<path id="path7989" d="m642.63 377.1-0.5024 10.299 0.2512 2.7632-0.5024 1.0048-0.7536 0.2512h-0.7536l0.2512 3.768 3.0144 1.256-1.256 11.304 9.7968 1.0048 1.256-0.5024 8.2896 1.256 7.536 1.0048 8.5408 1.256-3.2656 23.864-1.0048 6.5312-1.7584 9.7968 5.2752 0.7536 1.0048-2.2608 0.2512 0.2512 0.2512 2.7632v11.555l-0.7536 8.2896-1.0048 9.5456-0.5024 3.5168-3.5168 10.55 3.5168 1.5072-0.2512 0.5024-2.2608 3.2656-3.0144 3.768h-0.2512l-0.2512 0.7536-2.512 3.2656-1.0048 2.0096-2.0096 3.5168-0.5024 1.0048-0.5024 1.0048-0.2512 1.256-0.5024 1.5072 6.7824 3.2656 2.2608 1.256 1.7584 1.5072 2.512 2.2608-0.5024 19.342-0.2512 0.7536v0.5024h-0.2512l-0.2512 0.2512h-0.5024l-0.2512 0.2512h-0.2512l-0.2512 0.2512h-0.2512l-0.2512 0.2512h-0.7536l-0.7536 0.2512-0.2512 0.2512-1.256 0.2512-0.5024 0.2512h-0.7536-0.2512-0.2512l-0.5024 0.2512h-0.2512l-0.5024 0.2512-0.2512 0.2512-0.5024 0.2512h-0.2512-0.5024l-0.5024 0.2512-0.2512 0.2512-0.5024 0.2512-0.7536-0.2512-0.5024-0.2512-1.0048 0.2512h-0.7536l-0.2512 0.2512h-0.2512-0.5024l-0.7536 7.2848 1.0048 2.7632 1.7584 2.7632h0.2512l5.2752 0.7536-0.2512 1.256-0.5024 1.5072v1.256l0.2512 0.5024v1.256 2.0096l-0.2512 1.7584-0.2512 1.5072-0.5024 0.7536v0.7536l-0.2512 1.256v1.5072l-5.2752 0.7536-1.5072 0.2512-3.5168 17.584-1.256 5.7776-4.0192 10.048-12.811-1.256h-1.256l-1.5072-1.7584-4.7728-5.7776-1.256-1.5072-4.5216-1.5072-1.7584-1.0048-5.024-3.768-1.5072 0.5024-0.7536 0.7536-2.7632 0.5024-1.5072 0.5024-4.2704 2.512-1.256 1.0048-1.256 0.7536-0.7536 0.5024-0.7536 0.5024-1.7584 2.512 0.2512-11.806 0.2512-5.5264h-0.7536-0.5024-0.7536l-0.7536-0.2512h-0.5024-1.256-0.7536l-1.256-0.2512h-1.0048l-1.256-0.2512h-0.2512v0.5024 0.7536h-0.5024-1.0048-0.5024l-1.7584-0.2512h-1.0048l-1.256-0.2512h-1.5072-0.2512l-1.256-0.2512h-1.7584l-1.256-0.2512h-1.256-0.7536l-1.5072-0.2512-2.0096-0.2512h-1.256-0.5024l-1.7584-0.2512h-1.256-0.7536-0.2512l0.2512-0.5024h0.2512l0.2512-0.5024 0.2512-0.2512 0.2512-0.5024v-1.0048l-0.2512-0.2512v-0.7536l1.0048-0.2512h0.7536 0.7536 0.5024l0.5024-1.0048 0.2512-0.7536v-0.5024l0.5024-1.0048 0.5024-0.7536 0.2512-0.7536 0.2512-1.0048h0.2512v-0.7536l0.5024-1.0048v-0.5024l0.2512-0.7536h-0.2512l-1.0048-0.2512-1.0048-0.2512-1.0048-0.2512-0.5024-0.2512h-0.7536-1.256-0.7536l2.2608-3.768-3.2656-1.0048v-0.2512l-0.2512-0.5024v-0.2512l-0.5024-3.768 0.2512-0.7536 1.0048-2.512-3.2656-0.2512-4.5216-0.5024h-1.0048-1.0048l-0.7536-0.2512h-1.7584l-1.256-0.2512-1.7584-0.2512h-0.2512-0.7536l-1.0048-0.2512h-1.5072-0.2512l-1.0048-0.2512h-1.0048l-1.256-0.2512h-0.2512-1.256-0.5024l-0.2512-0.2512h-0.7536-1.5072l-0.7536-0.2512h-0.5024-0.7536v1.0048l-1.0048 0.7536 0.5024 1.7584v0.2512 0.5024l-0.2512 1.5072-0.2512 1.5072-0.5024 2.2608v0.5024l-0.2512 1.256v0.2512 0.2512l-0.2512 0.7536-0.2512 1.7584v1.0048l-0.5024 1.7584v1.256l-1.256-0.2512-0.2512-0.2512-1.256-0.2512-0.7536-0.2512-1.256-0.7536-0.5024-0.2512-0.5024-0.2512-1.0048-0.5024v-0.2512l-0.7536-0.5024-0.7536-0.5024-0.5024-0.2512h-0.2512-1.256-1.0048-0.5024-0.7536l-1.0048-0.2512-1.256-0.2512-0.7536-0.2512h-0.5024-0.5024-1.0048-0.5024-0.5024l-0.5024 0.2512h-0.2512-1.0048l-0.2512 0.2512-0.5024 0.2512v-0.2512l-0.7536-1.0048-1.0048-1.5072v-0.7536l0.2512-1.7584v-0.2512l0.2512-1.256 0.2512-0.7536v-1.0048-0.5024l0.2512-1.5072v-0.5024l0.2512-1.5072 0.2512-0.7536v-1.0048l0.2512-1.256v-0.7536l0.2512-0.2512v-0.2512-0.2512-0.2512-0.5024l0.2512-0.5024v-0.7536-0.2512l0.2512-0.7536v-0.5024l0.2512-1.5072 0.2512-2.0096 0.2512-1.0048 0.2512-2.0096v-0.5024l0.2512-2.0096 0.2512-0.7536h2.2608 1.256 0.7536l0.2512-0.7536 0.2512-0.5024v-0.2512l0.5024-1.0048v-0.2512l0.2512-0.7536 0.5024-1.256v-0.5024-0.2512l0.5024-1.0048v-0.5024l0.5024-1.0048v-0.5024l0.2512-1.0048 0.2512-1.0048v-0.2512l0.7536-0.5024 1.0048-0.7536 0.5024-0.2512 0.2512-0.2512 1.0048-0.7536 0.5024-0.2512 1.256-1.0048 0.5024-0.2512 0.2512-0.2512 0.7536-0.5024h0.2512l1.256-1.0048h0.2512l0.5024-0.2512 0.2512-0.2512 1.5072-1.256 0.2512-0.2512 2.0096-6.28 0.5024-2.0096v-2.7632l0.2512-1.0048 3.5168-6.28-1.256-2.512-1.256-2.2608-0.5024-1.0048-0.7536-4.2704-0.5024-2.2608-0.7536-1.7584-0.5024-3.5168v-1.0048l-1.256-4.0192-2.2608-0.2512-3.768-1.0048-3.2656-1.256-3.0144-1.0048-3.2656-0.7536-1.5072-0.7536-1.0048-0.2512-1.7584-0.7536-0.2512-2.0096 4.5216-13.816 0.2512-1.0048 0.2512-3.5168v-2.2608l0.2512-1.5072 0.7536-2.2608 0.2512-0.7536 0.5024-0.7536v-1.0048-0.7536-0.7536l0.2512-0.7536 0.2512-0.7536 0.5024-1.5072 0.2512-2.2608v-0.7536l-0.5024-3.5168 4.2704 0.5024 1.0048 0.5024 3.0144 1.7584 1.7584 0.7536 1.256 0.7536 1.5072 0.2512 1.7584 1.0048 1.7584 0.2512 0.7536 0.5024h0.2512l0.2512-0.5024 1.7584-4.2704 1.7584-2.2608h0.7536l1.0048-0.2512 1.0048-0.2512 1.0048-0.5024 1.256-0.7536 2.2608-2.0096 1.0048-0.7536v-1.0048l0.5024-1.0048 1.256-0.2512v-0.7536l0.2512-0.7536v-0.7536l1.7584-7.7872 25.12 2.7632 1.5072-10.802 0.2512-1.256 2.2608 0.5024 2.7632 1.0048 3.768 4.5216 8.792-10.802 2.2608-3.2656 2.0096-2.2608 0.5024-4.0192 0.2512-2.0096v-0.7536l0.5024-2.0096-18.086-0.2512 1.256-13.314 4.5216-1.0048 2.7632 0.2512 2.0096 0.5024 1.256 0.5024h1.7584l0.7536-1.0048 1.256 0.2512 2.0096 0.7536h1.256 1.5072l2.512 1.0048 0.7536 0.2512 1.0048-0.2512 3.768 0.2512h0.5024 1.5072l0.2512-3.2656 5.5264-0.7536 5.7776-1.0048 2.512-15.072 2.512 0.2512 4.5216 5.5264 0.2512 1.7584 0.2512 1.7584v1.5072l0.2512 0.2512 0.5024 1.256 0.2512 1.0048v2.0096"/>
	</g>
</svg>
